<svg xmlns="http://www.w3.org/2000/svg" viewBox="0 0 250 250"><defs><style>.a{fill:#ffffff;}</style></defs><path class="a" d="M81.64,158.18h51.3a3.3,3.3,0,1,0,0-6.6H81.64a3.3,3.3,0,0,0,0,6.6Z"/><path class="a" d="M81.64,140.28h51.3a3.3,3.3,0,1,0,0-6.6H81.64a3.3,3.3,0,1,0,0,6.6Z"/><path class="a" d="M81.64,121.64h51.3a3.3,3.3,0,1,0,0-6.6H81.64a3.3,3.3,0,0,0,0,6.6Z"/><path class="a" d="M81.64,104.31h51.3a3.3,3.3,0,1,0,0-6.6H81.64a3.3,3.3,0,1,0,0,6.6Z"/><path class="a" d="M37,157.82H62.18v26.23a3.3,3.3,0,0,0,3.3,3.3h74.1a39.69,39.69,0,0,0,37,24.55c21.89,0,39.7-17.17,39.7-38.26s-17.81-38.27-39.7-38.27A40.52,40.52,0,0,0,154.29,142V70.93a3.3,3.3,0,0,0-3.3-3.3H125.81V41.4a3.3,3.3,0,0,0-3.3-3.3H37a3.3,3.3,0,0,0-3.3,3.3V154.52A3.3,3.3,0,0,0,37,157.82Zm172.7,15.82c0,17.46-14.85,31.66-33.1,31.66s-33.11-14.2-33.11-31.66S158.34,142,176.6,142,209.7,156.18,209.7,173.64Zm-62-26.15a36.75,36.75,0,0,0-10.08,33.26H68.78v-26c0-.07,0-.12,0-.19s0-.13,0-.19V74.23h78.91ZM40.3,44.7h78.91V67.63H65.48a3.3,3.3,0,0,0-3.3,3.3v80.29H40.3Z"/><path class="a" d="M152,180.1l13.3,15.51a3.3,3.3,0,0,0,2.49,1.15h0a3.29,3.29,0,0,0,2.47-1.12L200.65,161a3.3,3.3,0,0,0-5-4.36L167.8,188.42,157,175.8a3.3,3.3,0,0,0-5,4.3Z"/></svg>