<svg xmlns="http://www.w3.org/2000/svg" viewBox="0 0 250 250"><defs><style>.a{fill:#ffffff;}</style></defs><path class="a" d="M125,196.88A71.88,71.88,0,1,0,53.12,125,72,72,0,0,0,125,196.88Zm0-137.16A65.28,65.28,0,1,1,59.72,125,65.36,65.36,0,0,1,125,59.72Z"/><path class="a" d="M99.86,121.49A10.51,10.51,0,1,0,89.35,111,10.51,10.51,0,0,0,99.86,121.49Z"/><path class="a" d="M150.14,121.49A10.51,10.51,0,1,0,139.63,111,10.51,10.51,0,0,0,150.14,121.49Z"/><path class="a" d="M124.56,164c15.79,0,29.87-8.83,35-22a3.3,3.3,0,0,0-6.15-2.42c-4.18,10.66-15.79,17.81-28.89,17.81s-24.71-7.15-28.89-17.8A3.3,3.3,0,1,0,89.53,142C94.69,155.11,108.77,164,124.56,164Z"/></svg>