<?xml version="1.0" ?><svg enable-background="new 0 0 512 512" id="Layer_1" version="1.1" viewBox="0 0 512 512" xml:space="preserve" xmlns="http://www.w3.org/2000/svg" xmlns:xlink="http://www.w3.org/1999/xlink"><g><g><linearGradient gradientUnits="userSpaceOnUse" id="SVGID_1_" x1="-0.0000027" x2="512" y1="256" y2="256"><stop offset="0" style="stop-color:#2eb8b8"/><stop offset="1" style="stop-color:#7F8C8D"/></linearGradient><circle cx="256" cy="256" fill="url(#SVGID_1_)" r="256"/><linearGradient gradientUnits="userSpaceOnUse" id="SVGID_2_" x1="42.6666641" x2="469.3333435" y1="256.0005188" y2="256.0005188"><stop offset="0" style="stop-color:#7F8C8D"/><stop offset="1" style="stop-color:#2eb8b8"/></linearGradient><path d="M256,469.3338623c-117.6315155,0-213.3333435-95.7018738-213.3333435-213.3333435    c0-117.6309204,95.7018204-213.333313,213.3333435-213.333313c117.6356812,0,213.3333435,95.7024002,213.3333435,213.333313    C469.3333435,373.6319885,373.6356812,469.3338623,256,469.3338623z" fill="url(#SVGID_2_)"/></g><g><path d="M264,347.4143982c0,0,77.265564-49.9354553,77.265564-126.1488037    C341.265564,178.5925293,306.6724854,144,264,144c-42.6725769,0-77.2656403,34.5925293-77.2656403,77.2655945    C186.7343597,297.4789429,264,347.4143982,264,347.4143982z M264,188.2165375    c17.2020874,0,31.1471558,13.9440002,31.1471558,31.1477356c0,17.200531-13.9450684,31.1466675-31.1471558,31.1466675    c-17.202713,0-31.1477814-13.9461365-31.1477814-31.1466675C232.8522186,202.1605377,246.797287,188.2165375,264,188.2165375z" opacity="0.3"/><path d="M358.445282,308.0592041h-38.825592c-22.2170105,29.3578491-48.2970276,46.5296021-50.1930542,47.7541199    L264,359.3183899l-5.4277649-3.5050659c-1.8960266-1.2245178-27.9754791-18.3962708-50.1930847-47.7541199h-38.825058L144,384h240    L358.445282,308.0592041z" opacity="0.3"/></g><g><path d="M256,339.4143982c0,0,77.265564-49.9354553,77.265564-126.1488037    C333.265564,170.5925293,298.6724854,136,256,136c-42.6725769,0-77.2656403,34.5925293-77.2656403,77.2655945    C178.7343597,289.4789429,256,339.4143982,256,339.4143982z M256,180.2165375    c17.2020874,0,31.1471558,13.9440002,31.1471558,31.1477356c0,17.200531-13.9450684,31.1466675-31.1471558,31.1466675    c-17.202713,0-31.1477814-13.9461365-31.1477814-31.1466675C224.8522186,194.1605377,238.797287,180.2165375,256,180.2165375z" fill="#FFFFFF"/><path d="M350.445282,300.0592041h-38.825592c-22.2170105,29.3578491-48.2970276,46.5296021-50.1930542,47.7541199    L256,351.3183899l-5.4277802-3.5050659c-1.8959961-1.2245178-27.9754639-18.3962708-50.1930695-47.7541199h-38.825058L136,376h240    L350.445282,300.0592041z" fill="#FFFFFF"/></g></g></svg>