<svg xmlns="http://www.w3.org/2000/svg" viewBox="0 0 250 250"><defs><style>.a{fill:#ffffff;}</style></defs><path class="a" d="M113.61,182.31l-3.31-.59a138.79,138.79,0,0,1-15.51-3.33c-7.53-2.25-11-7.31-10.58-15.46.44-8.83,1-17.64,1.47-26.46q.54-9.3,1.06-18.59c.11-2,0-5-2-7.17s-4.76-2.31-7-2.38q-17.1.11-34.19.32c-2,0-4.77.29-6.7,2.4s-2,5.09-1.85,7.12Q36.17,134.57,37.2,151q1.78,28.62,3.44,57.24c.31,5.27,4.36,5.78,6,5.78,5.8-.06,11.58,0,17.37,0h0c3.23,0,5.57-1.62,6.47-4.42l.88.42c.72.34,1.43.77,2.15,1.2,2,1.21,4.35,2.58,7,2.6,2.43,0,4.85.08,7.28.15,3.1.08,6.23.16,9.38.16a91.13,91.13,0,0,0,20.38-1.92C127.09,210,129,207.28,128,197.67,126.7,186.46,124.69,184.31,113.61,182.31Zm2.55,23.51c-9.19,2.08-18.4,1.86-28.15,1.59-2.47-.06-4.92-.12-7.39-.15-.93,0-2.44-.9-3.77-1.69-.89-.53-1.78-1.06-2.68-1.48s-1.81-.88-2.86-1.41l-1.5-.76a3.35,3.35,0,0,0-1.45-.34A3.25,3.25,0,0,0,65.22,204l-.33,1.19a6,6,0,0,0-.34,2.22,1.46,1.46,0,0,1-.51.06h0c-5.56,0-11.13-.05-16.93,0Q45.43,179,43.67,150.54c-.67-10.94-1.43-21.89-2.22-32.83a4.93,4.93,0,0,1,.14-2.26,4,4,0,0,1,2-.31q17.07-.23,34.15-.32h.08c1.77,0,2.16.36,2.16.36s.37.44.26,2.34q-.49,9.3-1.05,18.58c-.52,8.83-1,17.66-1.48,26.5-.56,11.09,4.84,18.91,15.2,22a142.46,142.46,0,0,0,16.25,3.51l3.28.58c8.12,1.47,8.12,1.47,9,9.71C122.18,204.45,122.18,204.45,116.16,205.82Z"/><path class="a" d="M209.53,101.41a8.87,8.87,0,0,0-6.09-.11l.39-1.44a11.18,11.18,0,0,0-1.17-8.16,8.63,8.63,0,0,0-11.6-3.06,9.48,9.48,0,0,0-7.55-7.36c-5.83-1.34-11,1.19-12.63,6.16-.13.42-.27.85-.39,1.28a9.87,9.87,0,0,0-6.55-3c-5.72-.53-10.18,5.23-11.6,11.13-.44,1.84-1,8.09-1.66,17.06a10.56,10.56,0,0,0-3.51-4,9.4,9.4,0,0,0-7.34-1.21c-3.63.81-9.46,3.69-7.63,14l1.87,10.56c2.1,11.89,4.2,23.79,6.49,35.65a20.2,20.2,0,0,0,4.25,9c.7,3.42-1.9,19.39-2.8,22.52A7.95,7.95,0,0,0,148.38,211c3.2.72,7.37,1.61,11.46,2.47,4.37.91,8.63,1.81,11.48,2.47a10.43,10.43,0,0,0,2.28.28,6.66,6.66,0,0,0,3.81-1.11c2.63-1.79,3.12-4.91,3.49-7.2.07-.47.13-.92.23-1.31,2.64-11.46,6.12-21.59,7.92-23.07,2.29-1.77,4.15-4.78,5.56-9,4.21-12.55,8.32-25.13,12.42-37.71q3.24-9.88,6.48-19.77C214.77,113.3,217.71,104.35,209.53,101.41Zm-2.18,13.68q-3.25,9.89-6.48,19.79c-4.11,12.56-8.21,25.13-12.42,37.66-.95,2.86-2.16,5-3.37,5.9-4.36,3.38-8.31,18.2-10.27,26.73-.13.53-.23,1.13-.33,1.76a10.29,10.29,0,0,1-.66,2.81,2.75,2.75,0,0,1-1-.09c-2.88-.67-7.19-1.57-11.6-2.5-4.06-.86-8.2-1.73-11.37-2.44a2.71,2.71,0,0,1-1.62-.82,2.48,2.48,0,0,1,.06-1.74c.06-.23,5.59-24,1.68-28.32a13.46,13.46,0,0,1-3-6.19c-2.28-11.83-4.38-23.69-6.47-35.55l-1.87-10.56c-1-5.72,1.1-6.18,2.64-6.52a4.4,4.4,0,0,1,1-.11,2.42,2.42,0,0,1,1.42.39c1.05.7,1.87,2.35,2.32,4.67q1.11,5.87,2.15,11.75l.89,5a3.18,3.18,0,0,0,3.4,2.65c3-.18,3-.18,4.16-16.5.66-8.93,1.64-22.43,2.13-24.47.72-3,2.93-6.38,4.74-6.19,2,.17,3,.81,3.24,3.87.17,2.27-.7,9.35-1.46,15.59-.47,3.79-.94,7.63-1.24,10.84a3.38,3.38,0,0,0,2.84,3.69c1.35.19,3-.27,3.61-3.07h0v0a5.12,5.12,0,0,0,.11-.61c.35-2.58,1.42-10.43,2.71-16,.45-2,.86-4,1.26-6.07a100.58,100.58,0,0,1,2.6-11c.85-2.67,4.57-1.92,5-1.81,1.21.27,3.14,1.1,2.58,3.6Q182,103,179.28,114.73l-1.84,8a3.51,3.51,0,0,0,2.3,4.13c2.16.56,2.95.22,4-2.68h0l0-.17c.45-1.26.95-3,1.63-5.3,1.67-5.77,4.23-14.6,6.31-21.18.22-.67,1.76-4,4-3.48a2,2,0,0,1,1.34,1,4.91,4.91,0,0,1,.48,3.1c-1.21,4.38-2.14,8.11-3,11.73-1.27,5.11-2.48,9.94-4.32,16a3.34,3.34,0,0,0,2.07,4.12c1.74.58,2.5.82,4-2.3l.16,0c.13-.42.25-.83.37-1.24,1.1-2.58,2.6-6.78,5-13.45,1.45-4.06,2.9-5.25,3.64-5.6a2.34,2.34,0,0,1,1.93,0C208.33,107.87,209.58,108.32,207.35,115.09Z"/><path class="a" d="M41.24,44.59c-2.94,2.64-3.56,7-1.7,12.12C44,68.92,52.67,76.33,63.92,77.58l.32,0A57.48,57.48,0,0,0,79,96.78c6.24,5.37,17.79,10.7,28,10.7h.55c9.37-.17,28.89-.53,42.6-30.51.12-.27.19-.52.3-.79,0,0,.1,0,.15,0a75.1,75.1,0,0,0,13.85-9.45c2.82-2.39,5.66-5.1,7.39-8.71,2.13-4.45,1.92-9.41-.54-12.94-3.46-4.93-10.3-5.73-15.3-4a28.12,28.12,0,0,0-9.62,6.43c-2.8-1.64-6.42-3.42-6.48-3.44-2.42-1.14-4.52-2.21-6.46-3.19-8.2-4.17-14.25-7.19-27.83-7.1-12.52.07-23.79,5.14-35.18,10.79l-1.58.76A23.34,23.34,0,0,0,64.21,48L53.8,44C51.51,43.13,45.44,40.82,41.24,44.59Zm116.92,2.59c2.61-.92,6.25-.67,7.83,1.59,1.26,1.8.91,4.52,0,6.42-1.2,2.51-3.46,4.64-5.72,6.56a63.32,63.32,0,0,1-7.88,5.83A54.32,54.32,0,0,0,151.54,57L151.1,54a15.68,15.68,0,0,0-.33-1.71C153,50.14,155.42,48.14,158.16,47.18Zm-86.52,4,1.68-.81c10.68-5.3,21.2-10,32.34-10.11,12,0,16.91,2.36,24.85,6.39,2,1,4.15,2.11,6.64,3.28,1.13.53,5.95,3.06,7.35,4a7.54,7.54,0,0,1,.17.94l.45,3.15c.94,6.29,1.61,10.85-.87,16.27-12,26.27-28.14,26.57-36.81,26.72-8.37.28-18.87-4.52-24.22-9.13a50,50,0,0,1-14-18.77,34.38,34.38,0,0,1-2.56-16.61C67.06,53.34,68,52.88,71.64,51.17ZM51.48,50.06l9.17,3.51a17,17,0,0,0-.41,2.14,39.06,39.06,0,0,0,1.3,14.78C52,68,47.51,59.6,45.63,54.48c-.84-2.3-.86-4.34-.06-5.06S48.4,48.89,51.48,50.06Z"/><path class="a" d="M79.86,65.61l1.91-.54c11.16-3.19,31.94-9.12,51.17,1.06a3.16,3.16,0,0,0,1.51.38A3.25,3.25,0,0,0,136,60.4C114.44,49,91.18,55.64,80,58.83l-1.88.54a3.24,3.24,0,1,0,1.75,6.24Z"/><path class="a" d="M77.64,76.75C85.18,79.73,94.42,81,104,81a128.85,128.85,0,0,0,34.38-4.83,3.24,3.24,0,1,0-1.8-6.23c-16.33,4.69-41,7-56.5.8a3.25,3.25,0,1,0-2.39,6Z"/><path class="a" d="M127.09,83.39c-8.27,6.5-30,7.36-38.12,1.52a3,3,0,0,0-3.5,4.87c4.62,3.33,12.37,5,20.4,5,9.5,0,19.38-2.27,24.93-6.62a3,3,0,0,0-3.71-4.72Z"/></svg>