<svg xmlns="http://www.w3.org/2000/svg" viewBox="0 0 250 250"><defs><style>.a{fill:#ffffff;}</style></defs><path class="a" d="M226.86,105.48a3.2,3.2,0,0,0-.09-.75l-.09-.32C223.21,75.89,211,73.68,207.37,73.68h-17.7a11.49,11.49,0,0,0-10.31,6.78,23.68,23.68,0,0,0-19.57-10.7H71.05C57.76,69.76,47,81.23,47,95.32v27a6.11,6.11,0,0,0-3.5,4.29H38.08c-10.16,0-14.89,7.21-14.89,22.68,0,18.29-.07,27.6-.07,27.6a3.31,3.31,0,0,0,3.28,3.33h0a3.29,3.29,0,0,0,3.3-3.28s.07-9.32.07-27.65c0-16.08,5.19-16.08,8.29-16.08h5.35c.94,3.37,3.32,4.68,5.44,4.68h.81a9.24,9.24,0,0,0,6.75,3H67.32a18.68,18.68,0,0,0-5.76,9,19.13,19.13,0,0,0-.77,5.47c0,10.38,8,18.83,17.84,18.83a17.91,17.91,0,0,0,16.7-12.34A17.89,17.89,0,0,0,112,174.23c9.84,0,17.85-8.45,17.85-18.83a19.23,19.23,0,0,0-6.56-14.5h36.48a23.49,23.49,0,0,0,18.33-9v5.72a3.3,3.3,0,0,0,3.3,3.3H184a19.24,19.24,0,0,0-6.54,14.5c0,10.38,8,18.83,17.85,18.83s17.85-8.45,17.85-18.83a19.23,19.23,0,0,0-6.56-14.5h17a3.31,3.31,0,0,0,3.3-3.31Zm-31.55,62.15c-6.2,0-11.25-5.48-11.25-12.23a12.67,12.67,0,0,1,.51-3.62,11,11,0,0,1,21.48,0,.14.14,0,0,0,0,.06,12.57,12.57,0,0,1,.49,3.54C206.56,162.15,201.52,167.63,195.31,167.63Zm2.21-63.73-.06-10.7A.74.74,0,0,1,198,93h8.77v10.75ZM213.36,93h3.38l2.37,10.6-5.75.07ZM95.48,103.27H85.38V94.11h10.1Zm-10.1,6.6h10.1V119H85.38Zm10.1-22.36H85.38V79.35h10.1ZM85.38,134.3v-8.67h10.1v8.67Zm-31.27-1.43a3.3,3.3,0,0,0-2.81-1.56H49.73a6.3,6.3,0,0,1-.13-1.37,6.12,6.12,0,0,1,.13-1.36h.52a3.3,3.3,0,0,0,3.3-3.3v-30c0-10.45,7.85-19,17.5-19h7.73V134.3H56.43A2.82,2.82,0,0,1,54.11,132.87Zm24.52,34.76c-6.2,0-11.24-5.48-11.24-12.23a12.33,12.33,0,0,1,.51-3.62,11.47,11.47,0,0,1,10.73-8.65c4.89,0,9.31,3.57,10.75,8.67,0,0,0,0,0,.06a12.12,12.12,0,0,1,.49,3.54C89.88,162.15,84.84,167.63,78.63,167.63Zm16.69-18.72a18.94,18.94,0,0,0-4.43-7.12h7.89a3.18,3.18,0,0,0,1.23-.25A18.67,18.67,0,0,0,95.32,148.91ZM112,167.63c-6.21,0-11.25-5.48-11.25-12.23a12.67,12.67,0,0,1,.51-3.62,11,11,0,0,1,21.48,0,.14.14,0,0,0,0,.06,12.57,12.57,0,0,1,.49,3.54C123.27,162.15,118.22,167.63,112,167.63Zm65.27-52.29c0,10.45-7.85,19-17.5,19H102.08V76.36h57.71c9.65,0,17.5,8.51,17.5,19Zm7.43,19V85.8a5.27,5.27,0,0,1,4.95-5.52h17.7c.25,0,3.94.12,7.43,6.15H198A6.83,6.83,0,0,0,190.92,93V103.9a6.52,6.52,0,0,0,6.73,6.27H220.2l.08,24.13Z"/><path class="a" d="M78.63,150.08a4.82,4.82,0,0,0-4,2.18,5.31,5.31,0,0,0-1,3.14,5,5,0,1,0,10,0,5.33,5.33,0,0,0-1-3.13A4.83,4.83,0,0,0,78.63,150.08Z"/><path class="a" d="M112,150.08a4.85,4.85,0,0,0-4,2.18,5.38,5.38,0,0,0-1,3.14,5,5,0,1,0,9.95,0,5.32,5.32,0,0,0-1-3.13A4.83,4.83,0,0,0,112,150.08Z"/><path class="a" d="M195.31,150.08a4.82,4.82,0,0,0-4,2.18,5.31,5.31,0,0,0-1,3.14,5,5,0,1,0,9.95,0,5.33,5.33,0,0,0-1-3.13A4.83,4.83,0,0,0,195.31,150.08Z"/><ellipse class="a" cx="26.21" cy="178.52" rx="8.57" ry="2.57"/></svg>