<?xml version="1.0" encoding="utf-8"?>
<!-- Svg Vector Icons : http://www.onlinewebfonts.com/icon -->
<!DOCTYPE svg PUBLIC "-//W3C//DTD SVG 1.1//EN" "http://www.w3.org/Graphics/SVG/1.1/DTD/svg11.dtd">
<svg version="1.1" xmlns="http://www.w3.org/2000/svg" xmlns:xlink="http://www.w3.org/1999/xlink" x="0px" y="0px" viewBox="0 0 1000 1000" enable-background="new 0 0 1000 1000" xml:space="preserve">
<metadata> Svg Vector Icons : http://www.onlinewebfonts.com/icon </metadata>
<g><g transform="translate(0.000000,512.000000) scale(0.100000,-0.100000)"><path fill="#ffb400" d="M2069.5,4988.3c-358.2-95.8-566.9-279.6-641.6-565c-53.6-212.6-36.4-408,88.1-923.2l65.1-273.9h212.6h214.5l57.5,187.7c32.6,101.5,65.1,206.9,70.9,233.7c7.7,26.8,38.3,101.5,69,164.7c59.4,128.3,130.2,180,247.1,180c95.8,0,162.8-53.6,293-227.9c204.9-277.7,346.7-362,572.7-340.9c346.7,30.6,618.7,331.4,582.3,639.7c-32.6,281.6-264.3,473.1-758.5,626.3c-120.7,36.4-256.7,76.6-300.7,88.1c-46,11.5-120.7,53.6-170.5,95.8c-47.9,42.1-114.9,91.9-147.5,109.2C2429.6,5030.5,2236.1,5032.4,2069.5,4988.3z"/><path fill="#ffb400" d="M2709.2,1862.5C236.5-612.2,412.7-416.8,412.7-690.7c0-229.8,134.1-432.9,352.4-532.5c137.9-65.1,362-57.5,499.9,13.4c86.2,44.1,448.2,396.5,1921.1,1865.6L5000,2469.6L6815.8,655.8c1471-1469.1,1833-1821.5,1919.2-1865.6c137.9-70.9,362-78.5,499.9-13.4c218.4,99.6,352.4,302.6,352.4,532.5c0,273.9,176.2,78.5-2296.5,2553.2C5180,3975.1,5063.2,4088.1,5000,4088.1C4936.8,4088.1,4820,3975.1,2709.2,1862.5z"/><path fill="#ffb400" d="M1276.5,3042.3c-26.8-26.8-30.6-153.2-30.6-1105.2V860.7l555.4,555.5l555.5,555.4v507.6c0,429-3.8,515.2-30.6,551.6c-28.7,42.1-34.5,42.1-524.8,42.1C1376.1,3073,1301.4,3069.1,1276.5,3042.3z"/><path fill="#ffb400" d="M3155.5,280.4L1380-1495.2v-1603.2v-1603.2l49.8-38.3l51.7-40.2h3463c1903.9,0,3476.4,5.7,3493.6,11.5c86.2,34.5,86.2,24.9,86.2,1687.4v1566.7l-1787,1787c-980.7,980.7-1789,1785.1-1794.7,1785.1C4936.8,2057.8,4134.3,1259.1,3155.5,280.4z M5534.4-700.3c19.1-9.6,42.1-49.8,47.9-86.2c15.3-74.7,11.5-70.9,226-139.8c157.1-51.7,172.4-51.7,216.4-3.8c46,51.7,97.7,47.9,170.5-11.5c80.4-69,203-233.7,203-273.9c0-19.2-23-53.7-49.8-80.5c-53.6-49.8-53.6-42.1-5.8-293c24.9-128.3,28.7-134.1,99.6-160.9c46-19.2,74.7-44.1,82.4-72.8c13.4-49.8-36.4-231.8-91.9-339l-38.3-74.7l-93.8,11.5c-95.8,13.4-95.8,13.4-212.6-93.9c-65.1-57.5-124.5-105.3-134.1-105.3s-15.3-42.1-13.4-91.9c1.9-51.7-1.9-101.5-7.6-113c-23-38.3-210.7-88.1-327.5-90c-118.8-1.9-124.5,1.9-157.1,111.1c-13.4,45.9-32.5,61.3-103.4,80.4c-47.9,11.5-126.4,38.3-174.3,55.5l-88.1,34.5l-72.8-49.8c-70.9-47.9-74.7-49.8-130.2-17.2c-70.9,40.2-220.3,222.2-235.6,285.4c-9.6,34.5,0,59.4,40.2,101.5s49.8,67,42.1,109.2c-5.8,28.7-21.1,113-34.5,185.8c-23,128.3-26.8,132.1-97.7,160.9c-47.9,19.2-76.6,44.1-84.3,72.8c-15.3,57.5,55.5,293,109.2,358.2c36.4,47.9,47.9,51.7,139.8,40.2c91.9-11.5,101.5-7.7,132.2,36.4c17.2,26.8,70.9,76.6,118.8,111.1c82.4,59.4,88.1,68.9,86.2,141.7c-5.7,114.9-3.8,120.7,40.2,143.7c44,24.9,250.9,72.8,319.9,74.7C5480.8-681.1,5515.2-688.8,5534.4-700.3z M3785.7-1562.2c15.3-15.3,26.8-59.4,26.8-113c0-47.9,7.7-95.8,15.3-107.3c15.3-21.1,199.2-103.4,262.4-118.8c26.8-5.7,59.4,13.4,103.4,59.4c36.4,38.3,78.5,68.9,93.9,68.9c72.8,0,310.3-237.5,310.3-310.3c0-7.7-30.6-49.8-69-91.9c-44-47.9-65.1-88.1-59.4-111.1c21.1-72.8,101.5-243.3,118.8-256.7c11.5-7.6,59.4-15.3,107.3-15.3c124.5,0,141.7-26.8,141.7-229.9c0-195.4-19.2-229.8-124.5-229.8c-40.2,0-88.1-5.8-105.4-11.5c-28.7-11.5-143.6-235.6-143.6-281.6c0-9.6,30.6-51.7,67-91.9c36.4-42.1,67-84.3,67-97.7c0-72.8-231.8-302.6-306.5-302.6c-17.2,0-51.7,23-78.5,49.8c-78.5,84.3-107.3,92-204.9,47.9c-189.6-84.3-185.8-80.4-195.4-193.5c-11.5-136-49.8-157.1-252.8-149.4c-180,7.7-210.7,30.6-226,170.5l-9.6,95.8l-139.8,59.4l-141.7,59.4l-72.8-72.8c-93.8-91.9-139.8-82.4-279.6,55.5c-137.9,139.8-147.5,185.8-55.5,279.6l72.8,74.7l-53.6,130.2c-30.7,70.9-61.3,137.9-70.9,149.4c-9.6,9.6-61.3,23-114.9,28.7c-124.5,11.5-149.4,49.8-149.4,229.8c0,180.1,24.9,218.4,143.6,226c53.6,3.8,103.4,13.4,113,23c9.6,9.6,40.2,74.7,70.9,145.6c59.4,137.9,55.5,157.1-28.7,235.6c-61.3,57.5-61.3,82.4-9.6,168.5c46,72.8,216.4,216.4,258.6,216.4c15.3,0,59.4-30.6,101.5-67c78.5-70.9,97.7-78.5,151.3-47.9c17.2,11.5,72.8,36.4,124.5,57.5c88.1,36.4,90,38.3,90,118.8c0,95.8,38.3,160.9,101.5,176.2C3507.9-1520,3755-1539.2,3785.7-1562.2z M6988.1-2129.1c34.5-5.7,42.1-21.1,42.1-74.7c0-59.4,9.6-70.9,82.4-107.3c44-23,95.8-53.6,114.9-70.9c28.7-24.9,44.1-26.8,97.7-7.7c34.5,13.4,72.8,23,84.3,23c26.8,0,105.3-114.9,147.5-216.4c30.6-72.8,30.6-72.8-28.7-124.5c-53.6-47.9-57.5-59.4-57.5-180c0-120.7,26.8-187.7,76.6-187.7c36.4,0,34.5-65.1-1.9-139.8c-92-180-141.7-216.4-226-162.8c-30.6,19.2-51.7,11.5-130.2-38.3c-51.7-34.5-105.4-61.3-116.8-61.3c-21.1,0-32.6-30.6-46-124.5c-7.6-46-124.5-74.7-245.2-57.5c-105.3,15.3-134.1,38.3-134.1,105.3c0,44.1-19.1,63.2-118.8,122.6c-109.2,63.2-122.6,67-180,46c-55.5-19.2-69-17.2-105.3,15.3c-46,40.2-132.2,201.1-132.2,245.2c0,17.2,21.1,44.1,47.9,61.3c44,28.7,47.9,42.1,47.9,180c0,137.9-3.8,151.3-47.9,180c-61.3,40.2-59.4,76.6,7.7,193.4c78.5,137.9,105.3,155.2,182,128.3c57.5-21.1,72.8-17.2,180,46c88.1,51.7,118.8,82.4,118.8,113C6647.2-2117.6,6767.9-2085.1,6988.1-2129.1z"/><path fill="#ffb400" d="M5363.9-1274.9c-310.3-105.4-409.9-509.5-185.8-743.2c180.1-189.6,448.2-203,637.8-36.4c113,99.6,159,201.1,160.9,346.7c0,206.9-130.2,383.1-327.5,440.5C5522.9-1228.9,5494.2-1228.9,5363.9-1274.9z"/><path fill="#ffb400" d="M3408.3-2280.5c-107.3-34.5-252.8-159-310.3-266.2c-55.6-105.4-59.4-369.7-5.8-471.2c49.8-93.9,160.9-206.9,250.9-252.8c107.3-55.5,285.4-67,413.7-24.9c147.5,49.8,291.1,197.3,335.2,344.8c97.7,340.9-130.3,670.4-480.8,691.5C3544.3-2255.6,3460.1-2263.2,3408.3-2280.5z"/><path fill="#ffb400" d="M6695.1-2569.7c-170.5-88.1-247.1-283.5-174.3-453.9c30.6-72.8,145.6-180,214.5-197.3c95.8-24.9,250.9,1.9,319.9,55.5c197.3,149.4,174.3,469.3-42.1,582.3C6913.5-2531.4,6779.4-2525.6,6695.1-2569.7z"/></g></g>
</svg>