<svg xmlns="http://www.w3.org/2000/svg" viewBox="0 0 250 250"><defs><style>.a{fill:#043f75;}</style></defs><path class="a" d="M120.13,199.4h-55A7.43,7.43,0,0,1,57.69,192V47.71A7.43,7.43,0,0,1,65.1,40.3h103a7.43,7.43,0,0,1,7.42,7.41v81a3.3,3.3,0,0,0,6.6,0v-81a14,14,0,0,0-14-14H65.1a14,14,0,0,0-14,14V192a14,14,0,0,0,14,14h55a3.3,3.3,0,1,0,0-6.6Z"/><polygon class="a" points="91.85 91.09 97.23 91.09 97.23 68.35 104.42 68.35 104.42 63.56 84.66 63.56 84.66 68.35 91.85 68.35 91.85 91.09"/><path class="a" d="M109.05,91.09l1.66-4.87h9.78l1.63,4.87h5.6l-10-27.53h-4.21l-10,27.53Zm6.65-19.41,3.36,10h-6.84Z"/><polygon class="a" points="142.44 76.97 150.44 63.56 144.37 63.56 139.54 72.45 134.74 63.56 128.63 63.56 136.63 76.97 128.09 91.09 134.24 91.09 139.54 81.5 144.87 91.09 151.02 91.09 142.44 76.97"/><path class="a" d="M149.06,116.69a3.3,3.3,0,0,0-3.3-3.3H93.2a3.3,3.3,0,0,0,0,6.6h52.56A3.3,3.3,0,0,0,149.06,116.69Z"/><path class="a" d="M132.91,138a3.3,3.3,0,0,0-3.3-3.3H93.2a3.3,3.3,0,1,0,0,6.6h36.41A3.3,3.3,0,0,0,132.91,138Z"/><path class="a" d="M93.2,157.3a3.3,3.3,0,0,0,0,6.6h20.65a3.3,3.3,0,1,0,0-6.6Z"/><circle class="a" cx="78.33" cy="117.38" r="6.39"/><circle class="a" cx="78.33" cy="138.62" r="6.39"/><path class="a" d="M78.33,153.47a6.39,6.39,0,1,0,6.39,6.39A6.39,6.39,0,0,0,78.33,153.47Z"/><path class="a" d="M159,136.37a40,40,0,1,0,40,40A40,40,0,0,0,159,136.37Zm0,73.33a33.37,33.37,0,1,1,33.36-33.37A33.41,33.41,0,0,1,159,209.7Z"/><path class="a" d="M148.2,177.09a10.79,10.79,0,0,0,5.59-1.52,11.66,11.66,0,0,0,4-4,11,11,0,0,0,0-11.17,11.8,11.8,0,0,0-4-4.06,10.95,10.95,0,0,0-11.23,0,11.75,11.75,0,0,0-4,4.07,11,11,0,0,0,0,11.16,11.66,11.66,0,0,0,4,4A10.89,10.89,0,0,0,148.2,177.09Zm-2.67-15.83a5.14,5.14,0,0,1,2.67-.74,5,5,0,0,1,2.63.74,5.92,5.92,0,0,1,2,2,5.23,5.23,0,0,1,0,5.33,6,6,0,0,1-2,2,5,5,0,0,1-2.64.73,5.05,5.05,0,0,1-2.69-.73,6,6,0,0,1-2-2,5,5,0,0,1-.74-2.64,5.09,5.09,0,0,1,.74-2.7A5.83,5.83,0,0,1,145.53,161.26Z"/><path class="a" d="M176.29,157.74a3,3,0,0,0-.83-2.12,2.82,2.82,0,0,0-2.11-.87,2.56,2.56,0,0,0-1.32.36,5,5,0,0,0-1,.82L142.15,192.8a3,3,0,0,0-.67,1.93,2.91,2.91,0,0,0,.84,2.1,2.81,2.81,0,0,0,2,.83,3.07,3.07,0,0,0,2.27-1l29.13-37.19A2.94,2.94,0,0,0,176.29,157.74Z"/><path class="a" d="M175.14,176.87a11,11,0,0,0-5.63-1.5,10.72,10.72,0,0,0-5.61,1.53,11.49,11.49,0,0,0-4,4,11,11,0,0,0,0,11.19,11.52,11.52,0,0,0,4,4,10.82,10.82,0,0,0,5.58,1.51,11,11,0,0,0,5.64-1.51,11.58,11.58,0,0,0,4-4,10.62,10.62,0,0,0,1.53-5.61,10.89,10.89,0,0,0-1.52-5.64A11.28,11.28,0,0,0,175.14,176.87Zm-2.93,14.29a5,5,0,0,1-2.7.74,5.2,5.2,0,0,1-2.69-.73,5.47,5.47,0,0,1-2-1.94,5.37,5.37,0,0,1,2-7.36,5.2,5.2,0,0,1,2.69-.73,5.09,5.09,0,0,1,2.68.75,5.8,5.8,0,0,1,2,2,5.08,5.08,0,0,1,0,5.28A5.86,5.86,0,0,1,172.21,191.16Z"/></svg>
