<svg xmlns="http://www.w3.org/2000/svg" viewBox="0 0 250 250"><defs><style>.a{fill:#043f75;}</style></defs><path class="a" d="M135.42,92.63V82h9.73V59.86h-9.73V49.26H114.59v10.6h-9.8V82h9.8V92.63Zm-24-17.26V66.46h9.8V55.86h7.63v10.6h9.73v8.91h-9.73V86h-7.63V75.37Z"/><path class="a" d="M154.82,80.74h-.06V35.28l-3.16-.13c-7.58-.33-45.77-1.89-53.31-1.33l-3,.24V80.75h0A48.33,48.33,0,0,0,47,129c0,45.21,73.36,85.2,76.49,86.88a3.26,3.26,0,0,0,3.13,0c3.12-1.68,76.48-41.67,76.48-86.88A48.31,48.31,0,0,0,154.82,80.74Zm-53-40.44c8.5-.13,28.83.58,46.31,1.3v56L124.6,108.55,101.85,97.66Zm-6.63,47h0v14.47l29.31,14,30.2-14V87.35h.06A41.7,41.7,0,0,1,196.45,129c0,11.25-5.38,22.35-13.2,32.56A26.11,26.11,0,0,0,167.12,141a14.7,14.7,0,1,0-19.85.18,25.92,25.92,0,0,0-9.91,7.34,25.28,25.28,0,0,0-2.76-1.24,14.7,14.7,0,1,0-19.68.18c-.78.33-1.56.67-2.31,1.07a25.75,25.75,0,0,0-10.33-7.55,14.7,14.7,0,1,0-19.88.2,26.15,26.15,0,0,0-15.64,20.45C58.93,151.37,53.55,140.27,53.55,129A41.72,41.72,0,0,1,95.22,87.34Zm55.85,83.58a25.82,25.82,0,0,0-.19-2.65c0-.09,0-.17,0-.26a24.71,24.71,0,0,0-.47-2.57c-.08-.32-.18-.64-.27-1-.16-.6-.34-1.19-.55-1.77-.12-.36-.27-.71-.41-1.07-.22-.54-.45-1.07-.71-1.59-.16-.35-.34-.69-.52-1-.28-.52-.59-1-.9-1.53-.2-.31-.39-.62-.59-.92q-.6-.85-1.26-1.65c-.17-.21-.32-.42-.49-.62a27.43,27.43,0,0,0-1.9-2,19.5,19.5,0,0,1,34.15,12.86c0,.24,0,1-1.22,2C171.67,170.48,160.75,172.06,151.07,170.92Zm-48-13.5c-.33.53-.65,1.06-1,1.6-.17.32-.33.64-.49,1-.26.54-.51,1.1-.74,1.67-.13.33-.26.65-.38,1-.22.61-.4,1.24-.57,1.87-.09.3-.18.59-.25.89a25.88,25.88,0,0,0-.48,2.63c0,.07,0,.14,0,.21-.1.88-.16,1.78-.18,2.67-9.7,1.14-20.6-.43-24.63-3.76-1.22-1-1.22-1.76-1.22-2a19.51,19.51,0,0,1,19.49-19.49,19.29,19.29,0,0,1,14.63,6.66,24.92,24.92,0,0,0-1.89,2c-.16.18-.3.38-.45.57a21.23,21.23,0,0,0-1.3,1.7C103.37,156.84,103.2,157.13,103,157.42Zm-10.8-19a8.09,8.09,0,1,1,8.08-8.09A8.1,8.1,0,0,1,92.22,138.38Zm32.43,6.21a8.09,8.09,0,1,1,8.09-8.09A8.1,8.1,0,0,1,124.65,144.59Zm-18.87,27.67a2.16,2.16,0,0,1-.24-.9,17.89,17.89,0,0,1,.14-2.33,19.41,19.41,0,0,1,8-13.48,18.91,18.91,0,0,1,11.3-3.68,19.11,19.11,0,0,1,11.33,3.66,19.54,19.54,0,0,1,8.16,15.83,2.17,2.17,0,0,1-.23.86c-1.37,2.56-8.54,5.26-19.23,5.26S107.05,174.75,105.78,172.26Zm51.31-33.88a8.09,8.09,0,1,1,8.08-8.09A8.1,8.1,0,0,1,157.09,138.38ZM125,209.22c-5.82-3.32-26.76-15.75-44.49-32.54a57.05,57.05,0,0,0,11.93,1.21,60.64,60.64,0,0,0,8.88-.69c4.54,5,14.84,6.88,23.69,6.88s19.06-1.84,23.67-6.88a61.68,61.68,0,0,0,8.86.68,56.6,56.6,0,0,0,12-1.22C151.78,193.46,130.83,205.9,125,209.22Z"/></svg>
