<svg xmlns="http://www.w3.org/2000/svg" viewBox="0 0 250 250"><defs><style>.a{fill:#043f75;}</style></defs><path class="a" d="M210.06,139.36H155.17V79.82l10,3.9a6.6,6.6,0,0,0,9-6.15V63.08a6.6,6.6,0,0,0-4-6.07L113.05,32.58a6.65,6.65,0,0,0-5-.09l-62.31,24a6.6,6.6,0,0,0-4.22,6.16V77.57a6.59,6.59,0,0,0,6.6,6.6,6.51,6.51,0,0,0,2.17-.37l12.2-4.25v59.81H39.94a3.3,3.3,0,0,0-3.3,3.3v18.26a3.3,3.3,0,0,0,3.3,3.3H67a3.3,3.3,0,0,0-1.41,2.7v15.57a3.3,3.3,0,0,0,2.92,3.28l102.12,11.7c0,.25,0,.49,0,.75A19.82,19.82,0,1,0,172,191l-75.26-8.62V164.22H210.06a3.3,3.3,0,0,0,3.3-3.3V142.66A3.3,3.3,0,0,0,210.06,139.36Zm-19.73,45.72a13.14,13.14,0,0,1,13.12,13c-5.32-3.91-9.46,2.78-9.46,2.78-6.12-8.46-10.36,0-10.36,0-2.45-3.39-4.66-3.91-6.4-3.38a13.29,13.29,0,0,1,.18-1.56,3.42,3.42,0,0,0,.27-1c0-.09,0-.17,0-.26A13.15,13.15,0,0,1,190.33,185.08ZM48.14,77.57V62.68l62.31-24,57.1,24.43V77.57l-56.27-22Zm21-.31,42-14.64,37.42,14.62v62.12H69.11Zm21,104.34-17.94-2V166.92a3.3,3.3,0,0,0-1.41-2.7H90.13Zm116.63-24H43.24V146H206.76Z"/></svg>