<svg xmlns="http://www.w3.org/2000/svg" viewBox="0 0 250 250"><defs><style>.a{fill:#043f75;}</style></defs><path class="a" d="M92.7,65.91l6-2.75-.47-1a2.81,2.81,0,0,1,1.38-3.71l27.21-12.51a2.8,2.8,0,0,1,3.71,1.38l.47,1,6-2.77-.47-1a9.4,9.4,0,0,0-12.47-4.61L96.86,52.43a9.4,9.4,0,0,0-4.62,12.46Z"/><path class="a" d="M187.64,99.55H72L181.67,49.14a6.61,6.61,0,0,0,2.64-9.79,17.16,17.16,0,0,0-21.24-5.72L64.35,79a17.21,17.21,0,0,0-9.5,19.84,6.57,6.57,0,0,0,3.55,4.33,6.3,6.3,0,0,0,2.18.61,51.87,51.87,0,0,0-.36,7.69c0,7.62.19,11.93,4.13,11.93h4a2.64,2.64,0,0,1,2.58,2.21l19.18,88A5.34,5.34,0,0,0,95.35,218h61.3a5.3,5.3,0,0,0,5.21-4.24l19.23-88.19a2.6,2.6,0,0,1,2.56-2.12h4c3.94,0,4.14-4.31,4.14-11.93S191.58,99.55,187.64,99.55ZM67.11,85l98.71-45.38a10.68,10.68,0,0,1,4.42-1,10.68,10.68,0,0,1,8.67,4.49L61.25,97.22A10.62,10.62,0,0,1,67.11,85ZM185,116.8h-1.37a9.19,9.19,0,0,0-9,7.4l-19,87.15H96.37l-19-87.06a9.23,9.23,0,0,0-9.05-7.49H67a90.1,90.1,0,0,1,0-10.65H185A90.1,90.1,0,0,1,185,116.8Z"/><path class="a" d="M122.08,169.23H109.75a.74.74,0,0,1-.67-.38h0a.84.84,0,0,1,0-.86l3.9-7.93,6.21,3.29a1.1,1.1,0,0,0,1.56-1.29l-4.23-13.8a1.12,1.12,0,0,0-1.38-.73l-13.79,4.23a1.12,1.12,0,0,0-.78,1,1.1,1.1,0,0,0,.58,1.07l5.43,2.88-4,8a8,8,0,0,0,7.09,11.77h12.33a1.11,1.11,0,0,0,1.1-1.1v-5A1.1,1.1,0,0,0,122.08,169.23Z"/><path class="a" d="M145.48,152.4a1.11,1.11,0,0,0-1.52-.31l-4.21,2.77a1.16,1.16,0,0,0-.47.7,1.11,1.11,0,0,0,.16.83l7,10.62a1.38,1.38,0,0,1-1.12,2.14l-7.57,0v-6.56a1.1,1.1,0,0,0-1.88-.78l-10.2,10.21a1.09,1.09,0,0,0,0,1.55l10.2,10.21a1.1,1.1,0,0,0,.78.32,1.25,1.25,0,0,0,.42-.08,1.1,1.1,0,0,0,.68-1v-6.61l7.64-.05A8.62,8.62,0,0,0,152.48,163Z"/><path class="a" d="M114.67,143.68l4.38,2.5a1.09,1.09,0,0,0,1.49-.4l5.22-8.93a.75.75,0,0,1,.55-.39.86.86,0,0,1,.78.38l4.38,6.24-5.4,3.68a1.1,1.1,0,0,0,.42,2l14.18,2.68.2,0a1.12,1.12,0,0,0,1.09-.9l2.67-14.19a1.09,1.09,0,0,0-1.7-1.1L137.45,139,133,132.71a7.69,7.69,0,0,0-6.94-3.48,8,8,0,0,0-6.63,4l-5.2,8.92a1.12,1.12,0,0,0-.12.84A1.16,1.16,0,0,0,114.67,143.68Z"/><path class="a" d="M194.09,67.18l-10.41-6.33a7.6,7.6,0,0,0-10.15,2.26,6.77,6.77,0,0,1-5.71,3c-6.31,0-11,5.36-13.29,8.55a3.3,3.3,0,0,0,.05,3.87c3.45,4.63,8.17,10.37,10.92,12.75a3.34,3.34,0,0,0,2.16.8,3.56,3.56,0,0,0,.91-.12,3.3,3.3,0,0,0,2.24-2.2c1-3.34,9.44-5.5,14.81-6.88a41.41,41.41,0,0,0,4.07-1.19h0c3.48-1.39,5.2-7.54,5.92-11.07A3.33,3.33,0,0,0,194.09,67.18Zm-7.18,8.55c-.71.24-1.78.5-3.3.89-5.75,1.48-12.56,3.23-16.44,7-1.68-1.86-3.73-4.35-5.77-7,1.55-1.75,3.94-3.89,6.42-3.89A13.38,13.38,0,0,0,178.88,67a1.12,1.12,0,0,1,1.37-.49l8.35,5.09A15.9,15.9,0,0,1,186.91,75.73Z"/></svg>