<svg xmlns="http://www.w3.org/2000/svg" viewBox="0 0 250 250"><defs><style>.a{fill:#043f75;}</style></defs><path class="a" d="M103.14,109.3a21.48,21.48,0,0,0,6.14,15.35,20.84,20.84,0,0,0,14.78,6.27,21.33,21.33,0,0,0,21.5-21.06,21,21,0,0,0-21.09-21.41h-.14A21.18,21.18,0,0,0,103.14,109.3Zm21.19-14.41h.1a14.8,14.8,0,1,1-.19,29.59h-.13a14.8,14.8,0,0,1,.22-29.59Z"/><path class="a" d="M186.79,32.05H152.16a15.11,15.11,0,0,0-15.1,15.1V73.9A15.12,15.12,0,0,0,152.16,89h5.7v7.47s-5.6,3.56-6.91,7.79a15.79,15.79,0,0,0-.51,6.19,40.51,40.51,0,0,1-.33,11.48,15.08,15.08,0,0,1-15.31,12.72H121.92l-8.46,0a15,15,0,0,1-10.2-4c-3.21-2.84-4.84-6.75-5.13-12.32-.1-1.87,0-3.85.1-6,.08-1.43.14-2.85.16-4.28a11.39,11.39,0,0,0-3.28-8.21c-1.84-1.88-5.7-3.38-5.7-3.38V89h8.43a15.12,15.12,0,0,0,15.1-15.1V47.15a15.11,15.11,0,0,0-15.1-15.1H63.21a15.12,15.12,0,0,0-15.1,15.1V73.9A15.13,15.13,0,0,0,63.21,89H82.48v7.47s-6.92,5-7.54,11.22a61.7,61.7,0,0,0,.32,16.92c2.61,15.12,11.16,25.75,24.81,30.93q0,7.26,0,14.52V202.6c0,8.18,6.4,15.35,13.69,15.35a13.09,13.09,0,0,0,10.74-5.61,15.36,15.36,0,0,0,1.47,1.74,12.29,12.29,0,0,0,17.78,0,18.28,18.28,0,0,0,4.95-12.76c-.06-21.5-.06-21.62-.06-27.7v-18A36.49,36.49,0,0,0,165,144c10.5-13.19,9.83-28.15,8.42-38.26-.67-4.75-8.62-9.27-8.62-9.27V89h22a15.13,15.13,0,0,0,15.1-15.1V47.15A15.12,15.12,0,0,0,186.79,32.05Zm-123.58,50A8.19,8.19,0,0,1,55,73.9V47.15A8.18,8.18,0,0,1,63.21,39H97.84A8.17,8.17,0,0,1,106,47.15V73.9a8.18,8.18,0,0,1-8.17,8.17ZM167,106.63c1.67,12,.82,23.43-7.07,33.36a30.81,30.81,0,0,1-16.08,10.39c-1.45.41-1.69,1-1.69,2.37,0,33.62,0,15,.07,48.59,0,5-2.94,10.11-7.39,10.11s-7.36-5-7.32-10.06c.17-18.43,0-20.28,0-20.91h0v-5.31a3.3,3.3,0,0,0-6.6,0V203a12.11,12.11,0,0,1-.27,2.41c-.76,3.22-3.16,6.07-6.91,6.07s-7.25-4.49-7.25-8.91c0-26.34,0-.41,0-26.75,0-7.81,0-15.61,0-23.41,0-1.22-.36-1.66-1.53-2C91.6,146.34,84,137.2,81.6,123.51a55.93,55.93,0,0,1-.25-15.18c.34-3.44,2.39-5.53,5.39-5.53h0A5.12,5.12,0,0,1,92,108c0,3.55-.45,7.12-.26,10.66C92,125.09,94,131,99,135.44a21.43,21.43,0,0,0,14.43,5.64H134.8a21.55,21.55,0,0,0,21.63-17.93,47.37,47.37,0,0,0,.42-13.29,10,10,0,0,1,.25-3.7A4.94,4.94,0,0,1,162,102.8h.34C164.51,102.92,166.72,104.51,167,106.63ZM195,73.9a8.19,8.19,0,0,1-8.17,8.17H152.16A8.18,8.18,0,0,1,144,73.9V47.15A8.17,8.17,0,0,1,152.16,39h34.63A8.18,8.18,0,0,1,195,47.15Z"/><path class="a" d="M101.86,46.79A3.47,3.47,0,0,0,97,46.44L74.06,66.24l-7.48-7.16a3.46,3.46,0,1,0-4.79,5l9.76,9.34a3.45,3.45,0,0,0,2.39,1,3.49,3.49,0,0,0,2.27-.84l25.3-21.86A3.48,3.48,0,0,0,101.86,46.79Z"/><path class="a" d="M174.75,59.44,184.08,49a3.46,3.46,0,0,0-5.17-4.61l-9.08,10.18L159.39,44.22a3.47,3.47,0,0,0-4.88,4.93l10.7,10.59-9,10.08a3.46,3.46,0,1,0,5.17,4.61l8.75-9.81,9.54,9.44a3.46,3.46,0,1,0,4.87-4.92Z"/></svg>
