<svg xmlns="http://www.w3.org/2000/svg" viewBox="0 0 250 250"><defs><style>.a,.b,.c{fill:#043f75;}.a,.c{stroke:#231f20;}.a{stroke-linecap:round;stroke-linejoin:round;stroke-width:3.78px;}.c{stroke-linecap:square;stroke-miterlimit:10;stroke-width:6.51px;}</style></defs><path class="a" d="M153.89,94.89c4.39-7.21,8.62-14.35,12.53-21.39l-4.42.63c-4.16,7-8.64,14.18-13.27,21.4Z"/><path class="b" d="M209.94,25.77l0-1.4-10.21,1.87-.08.81c-1,10.24-4.05,21.91-9.28,35.74l-.77,2,15.22-2.25.19-.73C208.64,47.87,210.23,36.09,209.94,25.77Zm-6.72,31.3a2.33,2.33,0,0,1-1.46,1.75l-6.43,1c-.57.09-.78-.56-.48-1.43s1-1.66,1.53-1.74l6.23-1C203.16,55.57,203.44,56.2,203.22,57.07Zm1.33-5.59c-.18.86-.79,1.63-1.33,1.71l-6.08,1c-.54.08-.75-.56-.48-1.41s.89-1.64,1.4-1.72l5.89-.94C204.46,50,204.74,50.62,204.55,51.48Zm1.12-5.5c-.15.85-.7,1.6-1.21,1.68l-5.73.93c-.51.08-.72-.55-.49-1.39s.79-1.6,1.29-1.68l5.52-.91C205.54,44.53,205.83,45.14,205.67,46Zm.88-5.39c-.12.82-.6,1.56-1.09,1.64l-5.37.9c-.48.08-.69-.53-.51-1.37s.71-1.58,1.16-1.65l5.18-.88C206.37,39.15,206.67,39.76,206.55,40.59Zm.62-5.29c-.07.81-.5,1.53-1,1.61l-5,.85c-.45.09-.68-.52-.53-1.34s.6-1.55,1-1.62c1.61-.27,3.22-.55,4.82-.84C207,33.89,207.24,34.48,207.17,35.3Zm.25-4.82c-.11.61-.38,1.15-.72,1.21l-4.67.82c-.42.08-.65-.52-.55-1.33s.5-1.5.89-1.57l4.47-.8c.32-.06.54.37.61.94Z"/><path class="a" d="M173,61a209.7,209.7,0,0,0,8.87-20l-3.2.55a220.28,220.28,0,0,1-9.64,20Z"/><path class="b" d="M159.39,32.17l-.25.46c-6.17,10.85-14.65,23-26,37.29l-1.88,2.36,14.48-2.14.29-.39c10.08-14.34,17.43-26.59,22.52-37.47l.91-2ZM144.51,67.92c-1.46.24-6.64,1-7.79,1.17s.8-2.48,2.35-2.71,6.06-.78,7.21-.88S146,67.67,144.51,67.92Zm2.6-4.89c-1.9.32-3.9.65-5.69.88s-.26-2.25,1.88-2.54,4.33-.67,5.56-.87S149,62.7,147.11,63ZM151,57.28c-1.57.29-3.3.53-5.4.86s-.47-2.16,1.79-2.5,3.71-.67,5.27-.86S152.6,57,151,57.28Zm3.71-5.68c-1.56.26-3.31.6-5.11.84s-.43-2.14,1.69-2.48,3.86-.7,5-.83S156.31,51.35,154.75,51.6ZM158.22,46c-1.59.24-3.68.62-4.8.81s0-2.11,1.58-2.44,3.39-.58,4.66-.8S159.8,45.76,158.22,46Zm3.21-5.53c-1.55.26-3.58.7-4.49.78s-.09-2.09,1.46-2.41a32.64,32.64,0,0,1,4.35-.77C163.55,38.07,163,40.21,161.43,40.46Zm2.69-4.89c-1.19.18-3,.53-4.19.75s-.72-1.81.88-2.16,3.58-.63,4.79-.86S165.31,35.39,164.12,35.57Z"/><path class="a" d="M132,130.42c4.55-7.52,9.19-15,13.77-22.37l-5.6.62c-4.83,7.39-9.72,14.83-14.51,22.32Z"/><path class="a" d="M79.26,246.65l10.37.26a133.85,133.85,0,0,1,2.48-26.09H82.74A136,136,0,0,0,79.26,246.65Z"/><path class="a" d="M87,205.94l8.82-.15a211.26,211.26,0,0,1,8.91-24.29l-8,.33A216.33,216.33,0,0,0,87,205.94Z"/><path class="a" d="M117.14,144.62c-4.68,7.64-9.18,15.35-13.33,23.09l7.53-.41c3.89-7.79,8.14-15.53,12.58-23.21Z"/><path class="b" d="M169.69,171.66l-27,1.3-.25.83c-5.24,16.79-8,32.26-8.41,47.31l-.05,2,32.74,0-.16-1.69c-1.53-15.12-.61-30.68,2.67-47.54ZM142.84,206l15.1-.23a2.2,2.2,0,0,1,2.43,2,2.38,2.38,0,0,1-2.53,2.1l-15.36.18a2,2,0,0,1-2.24-2A2.59,2.59,0,0,1,142.84,206ZM158,217.31l-15.85.07a2.17,2.17,0,0,1-2.41-2,2.46,2.46,0,0,1,2.58-2.07l15.57-.15a2.42,2.42,0,0,1,2.61,2.08A2.29,2.29,0,0,1,158,217.31Zm.13-14.75-14.89.29c-1.31,0-2.24-.85-2.08-2a2.69,2.69,0,0,1,2.62-2l14.64-.33a2,2,0,0,1,2.26,2A2.48,2.48,0,0,1,158.09,202.56Zm.58-7.21-14.44.39c-1.27,0-2.14-.83-1.92-1.92a2.78,2.78,0,0,1,2.62-2l14.21-.43a1.84,1.84,0,0,1,2.09,1.93A2.57,2.57,0,0,1,158.67,195.35Zm3.46-9.16a2.68,2.68,0,0,1-2.57,2.06l-14,.45c-1.23,0-2-.8-1.78-1.88a2.91,2.91,0,0,1,2.63-2l13.78-.49A1.71,1.71,0,0,1,162.13,186.19Zm1.15-7a2.75,2.75,0,0,1-2.57,2.05l-13.58.54a1.45,1.45,0,0,1-1.65-1.85,3,3,0,0,1,2.64-2l13.35-.59A1.59,1.59,0,0,1,163.28,179.17Z"/><path class="b" d="M176.45,94.82l-.26.57c-2,4.27-4.07,8.57-6.14,12.9-4.46,9.34-9.14,19.12-13.46,28.86l-1,2.36L179,137.62l.25-.75c3.27-9.83,6.9-19.7,10.35-29.11,1.61-4.38,3.22-8.74,4.76-13l.78-2.18Zm.55,36.32a3.18,3.18,0,0,1-2.41,2l-10.8.91c-.95.08-1.37-.66-.92-1.66a3.4,3.4,0,0,1,2.47-2l10.6-.93C176.89,129.38,177.36,130.12,177,131.14Zm2.36-6.46a3.15,3.15,0,0,1-2.36,2c-3.5.31-7,.62-10.43,1-.91.08-1.3-.66-.85-1.65a3.45,3.45,0,0,1,2.43-2l10.22-1C179.29,123,179.74,123.68,179.36,124.68Zm2.41-6.4a3.16,3.16,0,0,1-2.32,2l-10,1c-.89.08-1.25-.65-.79-1.63a3.43,3.43,0,0,1,2.37-1.93l9.87-1C181.73,116.57,182.14,117.3,181.77,118.28Zm2.42-6.34a3.08,3.08,0,0,1-2.26,1.93l-9.7,1c-.85.09-1.18-.64-.73-1.61a3.44,3.44,0,0,1,2.32-1.92c3.16-.33,6.32-.66,9.51-1C184.17,110.25,184.56,111,184.19,111.94Zm2.41-6.28a3.08,3.08,0,0,1-2.19,1.92c-3.14.35-6.25.68-9.34,1-.82.1-1.13-.61-.68-1.58a3.41,3.41,0,0,1,2.26-1.91l9.14-1C186.61,104,187,104.7,186.6,105.66Zm2.39-6.2a3,3,0,0,1-2.13,1.9l-9,1c-.79.09-1.07-.61-.63-1.57a3.32,3.32,0,0,1,2.18-1.89l8.79-1C189,97.8,189.35,98.5,189,99.46Z"/><path class="b" d="M43,177.39l-.29.41c-11.3,15.39-20,29.37-26.44,42.78L15.11,223l26.17,0,.32-.81c5.21-13.61,12.63-27.8,22.65-43.38l1.6-2.49Zm-3.49,38.53a3.38,3.38,0,0,1-2.86,1.88l-12.56.07c-1.1,0-1.59-.81-1.07-1.83a3.61,3.61,0,0,1,2.91-1.86l12.39-.11A1.21,1.21,0,0,1,39.49,215.92Zm3.06-6.64a3.58,3.58,0,0,1-2.89,1.88l-12.27.15c-1.07,0-1.5-.79-.95-1.8a3.78,3.78,0,0,1,2.93-1.85l12.1-.21C42.57,207.44,43,208.25,42.55,209.28Zm3.3-6.59a3.71,3.71,0,0,1-2.9,1.88c-4,.08-8,.15-12,.24-1,0-1.42-.78-.83-1.78a4.05,4.05,0,0,1,3-1.86l11.81-.27C46,200.87,46.39,201.68,45.85,202.69Zm3.55-6.53A3.91,3.91,0,0,1,46.48,198l-11.69.31c-1,0-1.35-.76-.72-1.76a4.18,4.18,0,0,1,3-1.85l11.52-.35C49.59,194.36,50,195.15,49.4,196.16Zm3.77-6.49a4.11,4.11,0,0,1-2.94,1.88l-11.4.38c-1,0-1.29-.75-.63-1.74a4.43,4.43,0,0,1,3-1.85l11.25-.42C53.43,187.88,53.77,188.67,53.17,189.67Zm4-6.45a4.19,4.19,0,0,1-2.94,1.88l-11.13.44c-1,0-1.21-.73-.52-1.71a4.55,4.55,0,0,1,3-1.86l11-.47C57.48,181.46,57.76,182.23,57.13,183.22Z"/><path class="c" d="M219.57,250c-50.4-103.43,49.6-186.52-.15-249.95-.68,0,0,0-1.11,0,46.75,63.77-58.67,147.4-13,250"/><path class="c" d="M154.41.06C142.54,57.74,49.81,128.92,0,200.6v-9C52.85,123.24,140.18,55.45,153.38.07,153.75.07,154.06.05,154.41.06Z"/><path class="b" d="M105.84,102.43l-.27.31q-5.53,6.35-11.15,12.73c-8,9.1-16.3,18.56-24.23,27.89l-2.14,2.53,20.67-1.66.29-.39c7.19-9.45,14.77-19,22-28.21q5.11-6.45,10.14-12.84l1.93-2.46ZM89.68,138a5,5,0,0,1-2.86,1.87l-9.22.79c-.81.07-.81-.66,0-1.62a5.49,5.49,0,0,1,2.91-1.86l9.07-.8C90.4,136.31,90.44,137,89.68,138Zm4.91-6.23a5.07,5.07,0,0,1-2.84,1.88l-8.94.81c-.79.08-.77-.64,0-1.6A5.55,5.55,0,0,1,85.75,131l8.79-.82C95.33,130.1,95.35,130.82,94.59,131.78Zm4.94-6.18a5.21,5.21,0,0,1-2.79,1.87c-2.92.28-5.82.55-8.7.84-.75.07-.71-.64.11-1.6A5.65,5.65,0,0,1,91,124.85l8.54-.85C100.3,123.92,100.3,124.64,99.53,125.6Zm5-6.18a5.2,5.2,0,0,1-2.76,1.87l-8.41.87c-.75.07-.68-.64.14-1.59a5.69,5.69,0,0,1,2.81-1.86l8.27-.88C105.27,117.76,105.25,118.47,104.48,119.42Zm4.94-6.15a5.27,5.27,0,0,1-2.71,1.87l-8.14.88c-.72.08-.64-.62.19-1.57a5.69,5.69,0,0,1,2.75-1.85l8-.89C110.22,111.63,110.18,112.33,109.42,113.27Zm4.92-6.1a5.28,5.28,0,0,1-2.65,1.85l-7.89.9c-.69.08-.59-.62.23-1.57a5.63,5.63,0,0,1,2.7-1.85l7.73-.9C115.14,105.52,115.09,106.22,114.34,107.17Z"/></svg>
