<svg xmlns="http://www.w3.org/2000/svg" viewBox="0 0 250 250"><defs><style>.a{fill:#ffffff;}</style></defs><path class="a" d="M80,100.72h77.38a3.3,3.3,0,0,0,0-6.6H80a3.3,3.3,0,0,0,0,6.6Z"/><path class="a" d="M80,115.74h77.38a3.3,3.3,0,0,0,0-6.6H80a3.3,3.3,0,0,0,0,6.6Z"/><path class="a" d="M80,131.39h77.38a3.3,3.3,0,0,0,0-6.6H80a3.3,3.3,0,0,0,0,6.6Z"/><path class="a" d="M177.57,139.42v-92a3.3,3.3,0,0,0-3.3-3.3H80.54a3.29,3.29,0,0,0-2.38,1L56.62,67.6l0,.06a2.52,2.52,0,0,0-.28.44,2.61,2.61,0,0,0-.37.62,2.74,2.74,0,0,0-.11.57,3.09,3.09,0,0,0-.12.59V188.49a3.3,3.3,0,0,0,3.3,3.3h70.66a36,36,0,1,0,47.91-52.37ZM78.4,65.55l-11.25.61,10.9-11.39ZM62.3,185.19V73L82,72a3.29,3.29,0,0,0,3.12-3.4L84.53,50.7H171v85.41a35.8,35.8,0,0,0-32.8,3.73l-.07,0H80a3.3,3.3,0,1,0,0,6.6H130.8a35.84,35.84,0,0,0-5.18,38.77Zm95.92,14.11a29.48,29.48,0,1,1,29.48-29.48A29.51,29.51,0,0,1,158.22,199.3Z"/><path class="a" d="M174.78,156.42l-19,22.93-10.91-10.2a3.3,3.3,0,1,0-4.51,4.82l13.46,12.59a3.33,3.33,0,0,0,2.26.89h.2a3.35,3.35,0,0,0,2.34-1.18l21.27-25.62a3.3,3.3,0,1,0-5.08-4.22Z"/></svg>