<svg xmlns="http://www.w3.org/2000/svg" viewBox="0 0 250 250"><defs><style>.a{fill:#000000;}</style></defs><path class="a" d="M114.37,61.33a3.3,3.3,0,0,0-3.3,3.3v7a3.3,3.3,0,1,0,6.6,0v-7A3.3,3.3,0,0,0,114.37,61.33Z"/><path class="a" d="M125.62,61.33a3.3,3.3,0,0,0-3.3,3.3v7a3.3,3.3,0,1,0,6.6,0v-7A3.3,3.3,0,0,0,125.62,61.33Z"/><path class="a" d="M136.88,61.33a3.3,3.3,0,0,0-3.3,3.3v7a3.3,3.3,0,0,0,6.6,0v-7A3.3,3.3,0,0,0,136.88,61.33Z"/><path class="a" d="M114.37,80a3.3,3.3,0,0,0-3.3,3.3v7a3.3,3.3,0,1,0,6.6,0v-7A3.3,3.3,0,0,0,114.37,80Z"/><path class="a" d="M125.62,80a3.3,3.3,0,0,0-3.3,3.3v7a3.3,3.3,0,1,0,6.6,0v-7A3.3,3.3,0,0,0,125.62,80Z"/><path class="a" d="M136.88,80a3.3,3.3,0,0,0-3.3,3.3v7a3.3,3.3,0,0,0,6.6,0v-7A3.3,3.3,0,0,0,136.88,80Z"/><rect class="a" x="146.82" y="118.08" width="6.6" height="10.58" transform="translate(-44.18 125.23) rotate(-39.96)"/><rect class="a" x="156.97" y="130.19" width="6.6" height="10.58" transform="translate(-49.59 134.45) rotate(-39.93)"/><rect class="a" x="167.12" y="142.31" width="6.6" height="10.58" transform="translate(-55 143.79) rotate(-39.93)"/><path class="a" d="M140.84,117.42l5.06-4.23-2.67-3.2h10.22a3.3,3.3,0,1,0,0-6.6h-2.67V55.33a3.23,3.23,0,0,0,1.46-2.66V39.81a3.3,3.3,0,0,0-3.3-3.3H101.06a3.3,3.3,0,0,0-3.3,3.3V52.67a3.26,3.26,0,0,0,1.66,2.8v47.92H96.55a3.3,3.3,0,0,0,0,6.6h6.34l-1.25,1.17,4.51,4.82,5.65-5.28-.67-.71h23.49ZM106,56.18h38.16V103H106Zm-1.66-13.07h41.28v6.26H104.36Z"/><rect class="a" x="91.13" y="117.35" width="10.42" height="6.6" transform="translate(-56.45 98.46) rotate(-43.13)"/><path class="a" d="M58.94,174v-6.85a3.3,3.3,0,0,0-6.6,0V174a3.3,3.3,0,0,0,6.6,0Z"/><path class="a" d="M66.79,177.26a3.3,3.3,0,0,0,3.3-3.3v-6.85a3.3,3.3,0,1,0-6.6,0V174A3.3,3.3,0,0,0,66.79,177.26Z"/><path class="a" d="M77.94,177.26a3.3,3.3,0,0,0,3.3-3.3v-6.85a3.3,3.3,0,0,0-6.6,0V174A3.3,3.3,0,0,0,77.94,177.26Z"/><path class="a" d="M37,213.49H96.77a3.3,3.3,0,0,0,0-6.6h-4.2v-53a3.26,3.26,0,0,0,1.56-2.73V138.25a3.3,3.3,0,0,0-3.3-3.3H85.89L91,130.13l-4.51-4.82-7.61,7.12L81.28,135H43a3.3,3.3,0,0,0-3.3,3.3v12.86a3.24,3.24,0,0,0,1.56,2.73v53H37a3.3,3.3,0,1,0,0,6.6Zm10.81-8.76V154.62H86v50.11H79.08V190.21a3.3,3.3,0,0,0-3.31-3.3H58a3.3,3.3,0,0,0-3.3,3.3v14.52Zm13.48-11.22H72.48v11.22H61.29Zm-15-52H87.53v6.26H46.25Z"/><path class="a" d="M153.22,213.49H213a3.3,3.3,0,0,0,0-6.6h-4.11V183.37a3.23,3.23,0,0,0,1.46-2.67v-5.08A3.31,3.31,0,0,0,209.1,173L185,154a3.28,3.28,0,0,0-4.12,0l-23.78,19.07a3.26,3.26,0,0,0-1.24,2.57v5.08a3.28,3.28,0,0,0,1.66,2.81v23.38h-4.31a3.3,3.3,0,1,0,0,6.6Zm10.91-29.22h38.16v21.37h-6.95V194.3A3.3,3.3,0,0,0,192,191H175.39a3.3,3.3,0,0,0-3.3,3.3v11.34h-8Zm14.56,13.33h10.05v8H178.69ZM183,160.77l20.78,16.45-41.28.18Z"/></svg>