<svg xmlns="http://www.w3.org/2000/svg" viewBox="0 0 250 250"><defs><style>.a{fill:#00000;}</style></defs><rect class="a" x="154.67" y="118.5" width="6.6" height="13.2" transform="translate(-33.45 188.04) rotate(-56.58)"/><rect class="a" x="138.21" y="107.65" width="6.6" height="13.2" transform="translate(-31.79 169.43) rotate(-56.58)"/><rect class="a" x="121.75" y="96.81" width="6.6" height="13.2" transform="translate(-30.1 150.94) rotate(-56.62)"/><rect class="a" x="105.29" y="85.96" width="6.6" height="13.2" transform="translate(-28.45 132.31) rotate(-56.62)"/><path class="a" d="M130.1,165.36v16.79a3.29,3.29,0,0,0,5.33,2.6l3.5-2.73v28.39H133.4a3.3,3.3,0,0,0,0,6.6h33.39l.08,0,.09,0h58.73a3.3,3.3,0,0,0,0-6.6h-5.46V182.07l3.43,2.68a3.25,3.25,0,0,0,2,.7,3.34,3.34,0,0,0,1.45-.33,3.3,3.3,0,0,0,1.85-3V165.36a3.31,3.31,0,0,0-1.26-2.6l-46.09-36.08a3.3,3.3,0,0,0-4.06,0l-46.22,36.08A3.28,3.28,0,0,0,130.1,165.36Zm58.82,45h-6.08V188.75a7.72,7.72,0,0,1,6.08,7.5Zm-12.68,0h-6.07V196.25a7.73,7.73,0,0,1,6.07-7.5Zm37.39-32v32H195.52V196.25A14.34,14.34,0,0,0,181.16,182h-3.23a14.34,14.34,0,0,0-14.36,14.29v14.16h-18V178.59a3.21,3.21,0,0,0-.37-1.44l34.44-26.88,34.29,26.83A3.25,3.25,0,0,0,213.63,178.38ZM136.7,167l42.9-33.5L222.39,167v8.42l-40.75-31.9a3.28,3.28,0,0,0-4.06,0L136.7,175.39Z"/><path class="a" d="M172.27,168.25a7.28,7.28,0,1,0,7.28-7.23A7.25,7.25,0,0,0,172.27,168.25Z"/><path class="a" d="M26.2,36.27V46.41H24.31a3.3,3.3,0,0,0,0,6.6H26.2V96a3.3,3.3,0,0,0,3.3,3.3H93.23a3.29,3.29,0,0,0,3.3-3.3V65.15h2.21a3.3,3.3,0,1,0,0-6.6H96.53V36.27a3.3,3.3,0,0,0-3.3-3.3H29.5A3.3,3.3,0,0,0,26.2,36.27Zm6.6,3.3H67V62.82a3.3,3.3,0,0,0,6.6,0V39.57H89.93v19H86.18V53.14a3.3,3.3,0,0,0-6.6,0V69.82a3.3,3.3,0,0,0,6.6,0v-4.7h3.75V92.67H73.54V77.36a3.3,3.3,0,0,0-6.6,0V92.67H32.8V53h4V63.37a3.3,3.3,0,0,0,6.6,0V46.69a3.28,3.28,0,0,0-6.55-.26h-4Z"/></svg>