<svg xmlns="http://www.w3.org/2000/svg" viewBox="0 0 250 250"><defs><style>.a{fill:#ffffff;}</style></defs><path class="a" d="M69.43,67.18a3.37,3.37,0,0,0-3.36,3.36v16.7a3.36,3.36,0,1,0,6.72,0V70.54A3.36,3.36,0,0,0,69.43,67.18Z"/><path class="a" d="M86.47,90.6a3.35,3.35,0,0,0,3.36-3.36V70.54a3.36,3.36,0,0,0-6.72,0v16.7A3.35,3.35,0,0,0,86.47,90.6Z"/><path class="a" d="M103.51,90.6a3.35,3.35,0,0,0,3.36-3.36V70.54a3.36,3.36,0,0,0-6.72,0v16.7A3.36,3.36,0,0,0,103.51,90.6Z"/><path class="a" d="M120.55,90.6a3.35,3.35,0,0,0,3.36-3.36V70.54a3.36,3.36,0,0,0-6.72,0v16.7A3.36,3.36,0,0,0,120.55,90.6Z"/><path class="a" d="M69.43,99.15a3.36,3.36,0,0,0-3.36,3.36v16.7a3.36,3.36,0,1,0,6.72,0v-16.7A3.35,3.35,0,0,0,69.43,99.15Z"/><path class="a" d="M86.47,122.57a3.36,3.36,0,0,0,3.36-3.36v-16.7a3.36,3.36,0,0,0-6.72,0v16.7A3.36,3.36,0,0,0,86.47,122.57Z"/><path class="a" d="M103.51,122.57a3.36,3.36,0,0,0,3.36-3.36v-16.7a3.36,3.36,0,0,0-6.72,0v16.7A3.37,3.37,0,0,0,103.51,122.57Z"/><path class="a" d="M120.55,122.57a3.36,3.36,0,0,0,3.36-3.36v-16.7a3.36,3.36,0,0,0-6.72,0v16.7A3.37,3.37,0,0,0,120.55,122.57Z"/><path class="a" d="M69.43,131.11a3.37,3.37,0,0,0-3.36,3.36v16.71a3.36,3.36,0,1,0,6.72,0V134.47A3.36,3.36,0,0,0,69.43,131.11Z"/><path class="a" d="M86.47,154.54a3.36,3.36,0,0,0,3.36-3.36V134.47a3.36,3.36,0,0,0-6.72,0v16.71A3.36,3.36,0,0,0,86.47,154.54Z"/><path class="a" d="M103.51,154.54a3.36,3.36,0,0,0,3.36-3.36V134.47a3.36,3.36,0,0,0-6.72,0v16.71A3.37,3.37,0,0,0,103.51,154.54Z"/><path class="a" d="M120.55,154.54a3.36,3.36,0,0,0,3.36-3.36V134.47a3.36,3.36,0,0,0-6.72,0v16.71A3.37,3.37,0,0,0,120.55,154.54Z"/><path class="a" d="M152.62,158.78a3.3,3.3,0,0,0,3.3-3.3v-16.7a3.3,3.3,0,1,0-6.6,0v16.7A3.3,3.3,0,0,0,152.62,158.78Z"/><path class="a" d="M169.05,158.78a3.3,3.3,0,0,0,3.3-3.3v-16.7a3.3,3.3,0,1,0-6.6,0v16.7A3.3,3.3,0,0,0,169.05,158.78Z"/><path class="a" d="M185.48,158.78a3.3,3.3,0,0,0,3.3-3.3v-16.7a3.3,3.3,0,0,0-6.6,0v16.7A3.3,3.3,0,0,0,185.48,158.78Z"/><path class="a" d="M152.62,190.74a3.3,3.3,0,0,0,3.3-3.3v-16.7a3.3,3.3,0,1,0-6.6,0v16.7A3.29,3.29,0,0,0,152.62,190.74Z"/><path class="a" d="M169.05,190.74a3.3,3.3,0,0,0,3.3-3.3v-16.7a3.3,3.3,0,1,0-6.6,0v16.7A3.3,3.3,0,0,0,169.05,190.74Z"/><path class="a" d="M185.48,190.74a3.3,3.3,0,0,0,3.3-3.3v-16.7a3.3,3.3,0,1,0-6.6,0v16.7A3.3,3.3,0,0,0,185.48,190.74Z"/><path class="a" d="M213,209.73H202.25V124.87a3.26,3.26,0,0,0,2.76-3.19V105.34a3.3,3.3,0,0,0-3.3-3.3H142.35V56.63a3.33,3.33,0,0,0,2.87-3.27V37a3.35,3.35,0,0,0-3.36-3.36H47.92A3.35,3.35,0,0,0,44.56,37V53.36a3.34,3.34,0,0,0,3.26,3.34v153H37a3.3,3.3,0,1,0,0,6.6H213a3.3,3.3,0,0,0,0-6.6Zm-17.35-84.47v84.41H142.43V125.26ZM54.54,57.11h81.09v152.5H116.75V169.35a3.36,3.36,0,0,0-3.36-3.36H76.78a3.36,3.36,0,0,0-3.36,3.36v40.26H54.54ZM110,172.71v36.9H98.45v-36.9Zm-29.89,0H91.72v36.9H80.14Zm62.29-64.07h56v9.74h-56ZM51.28,40.39H138.5V50H51.28Z"/></svg>
