<svg xmlns="http://www.w3.org/2000/svg" viewBox="0 0 250 250"><defs><style>.cls-1{fill:#ffffff;}</style></defs><g id="Layer_15" data-name="Layer 15"><path class="cls-1" d="M178.52,219.28h-128a2.47,2.47,0,0,1-2.37-3.12L58,180.63a62.08,62.08,0,0,1-14.25-38H39.28a2.46,2.46,0,0,1-2.46-2.46v-1.72a10.58,10.58,0,0,1,10.57-10.57h85.17a10.59,10.59,0,0,1,10.45,9,7.8,7.8,0,0,0,3.2-3.07,8,8,0,0,0,1-4V58.55h-1.92a2.46,2.46,0,0,1-2.46-2.46V49a7.63,7.63,0,0,1,7.62-7.62h16.1a7.62,7.62,0,0,1-.54-2.83,7.75,7.75,0,0,1,15.49,0,7.62,7.62,0,0,1-.54,2.83h16.1A7.63,7.63,0,0,1,204.67,49v7.12a2.46,2.46,0,0,1-2.46,2.46h-1.92v64.34c0,7.34-2.31,13.71-7.26,20-.77,1-1.66,2.09-2.54,3.18-.74.91-1.46,1.81-2.11,2.63s-1.34,1.66-2,2.52c-4.89,5.94-10.42,12.68-11.77,25.75-1.12,10.94,6,38.23,6.12,38.5l.18.59a2.49,2.49,0,0,1-.38,2.18A2.45,2.45,0,0,1,178.52,219.28ZM53.71,214.36H175.32c-1.8-7.21-6.66-28-5.64-37.85,1.5-14.54,7.8-22.21,12.86-28.37.68-.83,1.35-1.64,2-2.45l2.14-2.66c.86-1.07,1.74-2.16,2.5-3.12,4.24-5.43,6.21-10.84,6.21-17V58.55H152.12v71.21a13,13,0,0,1-1.66,6.47,12.81,12.81,0,0,1-8.86,6.19,2.61,2.61,0,0,1-.93.18h-92a57,57,0,0,0,13.9,35.79h0l0,0c.18.21,12.07,13.81,34.82,13.81a2.46,2.46,0,0,1,0,4.92c-18.38,0-30.19-7.95-35.44-12.49Zm-7.55-76.68h92a5.66,5.66,0,0,0-5.6-4.91H47.39a5.67,5.67,0,0,0-5.61,4.91Zm151.67-84h1.92V49a2.7,2.7,0,0,0-2.7-2.71H150.44A2.71,2.71,0,0,0,147.73,49v4.67ZM173.74,35.7a2.83,2.83,0,1,0,2.83,2.82A2.82,2.82,0,0,0,173.74,35.7Z"/><path class="cls-1" d="M68.48,69.55l-7-4.4c.68-1.1,1.36-2.17,2-3.25q5.94-9.51,11.89-19c1.3-2.07,2.57-4.15,4-6.15A15.05,15.05,0,0,1,85.1,31.6a12.67,12.67,0,0,1,8.38-1.14,13.88,13.88,0,0,1,5.63,2.86,23.47,23.47,0,0,1,4.88,5c1,1.37,1.79,2.83,2.67,4.26l7.38,12,.15.21,7-3.21c-.09.25-.16.42-.23.6-1.74,4.53-3.5,9.07-5.24,13.61-.09.25-.21.31-.47.27l-13.4-2-1.63-.24,6.84-4.68c-.13-.21-.24-.41-.36-.6-3.3-5.4-6.62-10.8-9.9-16.22a10.13,10.13,0,0,0-1.92-2.53A5.32,5.32,0,0,0,89.06,39a6.82,6.82,0,0,0-3.25,2.87L78.89,52.91,68.63,69.33C68.59,69.39,68.54,69.45,68.48,69.55Z"/><path class="cls-1" d="M94.36,113,104,100.82l.63,8.24h1.58l5-.13,9-.23c1.57,0,3.15-.06,4.73-.08a6.48,6.48,0,0,0,4.33-1.36,5.71,5.71,0,0,0,2-4.81,6.88,6.88,0,0,0-.83-3q-3.9-7.36-7.83-14.73l-7.45-14a2.3,2.3,0,0,1-.12-.23l7.32-3.89,1,1.76q5.3,10,10.59,20c1.32,2.48,2.65,5,3.91,7.46a17.11,17.11,0,0,1,1.71,5.73,12.52,12.52,0,0,1-7.22,13.11,25.75,25.75,0,0,1-8.1,2.26c-1.2.13-2.41.08-3.62.12l-9.76.28-5.52.14c-.27,0-.36.08-.39.36-.21,2.37-.44,4.73-.66,7.09,0,.06,0,.13,0,.26Z"/><path class="cls-1" d="M91.17,109v8.29h-.36l-10.2,0-21.4,0a18.18,18.18,0,0,1-7.39-1.41A13,13,0,0,1,45,109.07,11.91,11.91,0,0,1,44.1,104a24,24,0,0,1,1.73-8.43c.47-1.19,1.11-2.31,1.67-3.46q3.41-6.89,6.79-13.76a1.79,1.79,0,0,0,.09-.19l-6.47-4.25,1.67-.33,13.3-2.59c.19,0,.33,0,.43.18L69.37,85s0,0,0,.13l-7.58-3.3L61,83.45l-6,12c-.84,1.7-1.73,3.37-2.54,5.08a5.57,5.57,0,0,0-.42,4.34,5.94,5.94,0,0,0,4.25,3.89,8.06,8.06,0,0,0,2.07.27c4.79,0,9.58,0,14.38,0l9.51,0,8.46,0Z"/></g></svg>