<svg xmlns="http://www.w3.org/2000/svg" viewBox="0 0 250 250"><defs><style>.a{fill:#00000;}</style></defs><rect class="a" x="111.29" y="152.12" width="6.6" height="13.2" transform="translate(-78.66 189.94) rotate(-63.35)"/><rect class="a" x="93.67" y="143.28" width="6.6" height="13.2" transform="translate(-80.47 169.38) rotate(-63.37)"/><rect class="a" x="76.05" y="134.43" width="6.6" height="13.2" transform="translate(-82.29 148.75) rotate(-63.37)"/><rect class="a" x="128.33" y="161.32" width="6.6" height="11.91" transform="translate(-76.9 209.95) rotate(-63.37)"/><path class="a" d="M69.68,83.51a7.24,7.24,0,1,0-7.27-7.23A7.25,7.25,0,0,0,69.68,83.51Z"/><path class="a" d="M23.53,118.44a3.3,3.3,0,1,0,0,6.6h92.3a3.3,3.3,0,0,0,0-6.6h-5.47V90.09l3.44,2.69a3.29,3.29,0,0,0,2,.7,3.17,3.17,0,0,0,1.44-.34,3.29,3.29,0,0,0,1.86-3V73.38a3.32,3.32,0,0,0-1.27-2.6L71.77,34.71a3.28,3.28,0,0,0-4.06,0L21.5,70.78a3.29,3.29,0,0,0-1.27,2.6v16.8a3.3,3.3,0,0,0,5.33,2.6l3.5-2.73v28.39Zm55.52,0H73V96.78a7.71,7.71,0,0,1,6.07,7.5Zm-12.67,0H60.31V104.28a7.7,7.7,0,0,1,6.07-7.5ZM26.83,75,69.74,41.5,112.53,75v8.42L71.77,51.51a3.28,3.28,0,0,0-4.06,0L26.83,83.41ZM35.3,85.18,69.74,58.29,104,85.13a3.36,3.36,0,0,0-.26,1.28v32H85.65V104.28A14.34,14.34,0,0,0,71.3,90H68.06a14.34,14.34,0,0,0-14.35,14.3v14.16H35.66V86.62A3.33,3.33,0,0,0,35.3,85.18Z"/><path class="a" d="M221,149.69H157.23a3.3,3.3,0,0,0-3.3,3.3v10.14H152a3.3,3.3,0,0,0,0,6.6h1.89v43a3.3,3.3,0,0,0,3.3,3.3H221a3.29,3.29,0,0,0,3.3-3.3V181.87h2.21a3.3,3.3,0,1,0,0-6.6h-2.21V153A3.3,3.3,0,0,0,221,149.69Zm-3.3,59.7H201.28V194.08a3.3,3.3,0,1,0-6.6,0v15.31H160.53V169.75h4v10.34a3.3,3.3,0,1,0,6.6,0V163.41a3.28,3.28,0,0,0-6.55-.26h-4v-6.86h34.15v23.25a3.3,3.3,0,0,0,6.6,0V156.29h16.38v19h-3.75v-5.38a3.3,3.3,0,1,0-6.6,0v16.67a3.3,3.3,0,1,0,6.6,0v-4.69h3.75Z"/></svg>