<svg xmlns="http://www.w3.org/2000/svg" viewBox="0 0 250 250"><defs><style>.a{fill:#ffffff;}</style></defs><polygon class="a" points="195.43 151.01 194.1 151.01 194.1 157.61 195.43 157.61 195.43 171.4 194.1 171.4 194.1 178 195.43 178 195.43 195.47 54.57 195.47 54.57 178 64.5 178 64.5 171.4 54.57 171.4 54.57 157.61 64.5 157.61 64.5 151.01 54.57 151.01 54.57 125.72 37 125.72 37 132.32 47.97 132.32 47.97 202.07 202.03 202.07 202.03 132.32 213 132.32 213 125.72 195.43 125.72 195.43 151.01"/><rect class="a" x="91.73" y="151.01" width="13.71" height="6.6"/><rect class="a" x="71.26" y="151.01" width="13.71" height="6.6"/><rect class="a" x="112.2" y="151.01" width="13.71" height="6.6"/><rect class="a" x="173.63" y="151.01" width="13.71" height="6.6"/><rect class="a" x="153.15" y="151.01" width="13.71" height="6.6"/><rect class="a" x="132.68" y="151.01" width="13.71" height="6.6"/><rect class="a" x="71.26" y="171.4" width="13.71" height="6.6"/><rect class="a" x="173.63" y="171.4" width="13.71" height="6.6"/><rect class="a" x="132.68" y="171.4" width="13.71" height="6.6"/><rect class="a" x="112.2" y="171.4" width="13.71" height="6.6"/><rect class="a" x="91.73" y="171.4" width="13.71" height="6.6"/><rect class="a" x="153.15" y="171.4" width="13.71" height="6.6"/><path class="a" d="M202,110.22V64.61h5.08V47.93H42.89V64.61H48v45.61H37v6.6H54.57V69H195.43v47.84H213v-6.6Zm-1.92-52.61H195V62H55V57.61H49.89V54.93H200.11Z"/></svg>