<?xml version="1.0" standalone="no"?>
<!DOCTYPE svg PUBLIC "-//W3C//DTD SVG 20010904//EN"
 "http://www.w3.org/TR/2001/REC-SVG-20010904/DTD/svg10.dtd">
<svg version="1.0" xmlns="http://www.w3.org/2000/svg"
 width="512.000000pt" height="512.000000pt" viewBox="0 0 512.000000 512.000000"
 preserveAspectRatio="xMidYMid meet">

<g transform="translate(40.000000,470.000000) scale(0.085000,-0.085000)"
fill="#ffffff" stroke="none">
<path d="M2406 5110 c-70 -11 -862 -217 -888 -231 -39 -21 -35 -98 8 -125 27
-18 30 -17 729 169 142 37 158 40 300 40 133 1 162 -2 255 -26 58 -16 508
-134 1000 -263 1116 -293 1000 -259 1000 -289 0 -15 -7 -26 -20 -30 -11 -4
-361 -96 -776 -205 l-756 -199 -236 215 -237 215 -6 120 c-6 99 -11 128 -31
167 -36 69 -92 105 -174 110 -83 6 -142 -16 -187 -69 -48 -55 -57 -97 -57
-253 0 -135 0 -137 26 -161 53 -49 178 -74 270 -54 32 7 62 13 66 14 9 0 386
-337 387 -346 1 -3 -84 -27 -188 -53 -213 -53 -331 -65 -451 -47 -41 6 -282
66 -535 132 -253 66 -692 181 -975 255 -680 178 -620 160 -620 189 0 14 7 26
19 30 10 3 213 57 450 119 265 70 440 121 452 132 42 38 11 124 -45 124 -46 0
-928 -238 -955 -257 -36 -27 -71 -99 -71 -148 1 -53 30 -117 67 -143 35 -25
84 -39 633 -182 234 -61 432 -114 441 -118 14 -6 2 -54 -90 -364 l-106 -358
-115 0 c-144 0 -233 -19 -335 -69 -183 -90 -306 -274 -321 -478 -11 -147 46
-315 142 -422 l46 -51 -134 0 c-150 -1 -207 -10 -260 -45 -92 -60 -122 -200
-65 -298 31 -52 84 -93 135 -103 40 -8 47 -29 47 -144 0 -115 -7 -136 -47
-144 -51 -10 -104 -51 -134 -102 -37 -63 -39 -158 -6 -222 25 -47 87 -97 133
-107 16 -4 29 -9 29 -12 0 -2 -20 -28 -45 -56 -25 -29 -62 -83 -81 -122 -113
-229 -70 -490 111 -670 81 -81 161 -127 271 -155 76 -20 119 -20 2247 -20
1597 0 2180 3 2208 11 50 15 105 62 129 109 64 126 8 269 -126 319 -44 17 -50
23 -56 57 -8 47 -8 148 1 188 6 30 14 36 70 57 187 70 180 349 -10 416 l-47
17 49 54 c83 91 136 215 145 342 16 210 -102 436 -282 541 l-52 30 21 55 c18
49 19 63 10 109 -22 101 -87 167 -186 190 -60 13 -65 23 -65 140 0 117 5 129
59 136 84 12 132 49 168 129 23 51 27 114 9 173 -17 55 -82 122 -133 136 -25
7 -151 11 -330 11 l-290 0 -106 358 c-92 309 -104 358 -90 364 9 4 243 66 521
139 356 92 516 138 543 156 45 29 76 89 77 148 0 49 -35 121 -71 148 -17 12
-338 101 -840 233 -1372 361 -1304 345 -1454 349 -71 2 -157 0 -189 -5z m200
-501 c16 -18 19 -37 19 -117 l0 -95 -28 -10 c-16 -5 -48 -6 -73 -2 l-44 6 0
97 c0 118 12 142 69 142 26 0 44 -7 57 -21z m-699 -824 c241 -63 479 -119 528
-126 145 -19 269 -6 494 52 108 27 204 52 214 55 16 5 17 -8 17 -174 l0 -179
-25 -11 c-27 -13 -99 -115 -109 -157 l-6 -25 -879 0 -880 0 18 63 c59 203 184
617 187 617 2 0 200 -52 441 -115z m1833 -162 c45 -153 91 -306 101 -340 l18
-63 -199 0 -199 0 -27 61 c-18 39 -44 75 -76 104 l-48 43 0 191 0 190 43 12
c128 35 283 77 293 78 6 0 48 -122 94 -276z m-466 -363 c43 -51 80 -200 101
-407 l6 -63 -141 0 -140 0 0 28 c1 50 28 238 45 302 19 72 58 156 77 163 22 9
26 8 52 -23z m-298 -217 c-3 -16 -8 -49 -12 -75 l-6 -48 -1052 -2 -1051 -3
-50 -23 c-220 -101 -228 -399 -12 -514 l42 -23 1885 -5 c1037 -3 1886 -6 1888
-8 2 -1 10 -18 17 -37 16 -36 9 -71 -18 -93 -11 -10 -430 -12 -1909 -10
l-1894 3 -76 38 c-216 106 -304 354 -204 573 52 112 186 220 306 243 25 5 519
9 1098 10 l1054 1 -6 -27z m1639 2 c30 -30 32 -64 4 -99 l-20 -26 -539 0 -538
0 -6 28 c-3 15 -8 48 -12 75 l-6 47 546 0 547 0 24 -25z m-1663 -325 c8 -83
-3 -80 282 -80 138 0 256 4 263 8 16 10 33 57 33 93 l0 29 428 0 427 0 0 -135
0 -135 -1762 2 -1762 3 -30 29 c-76 73 -51 197 45 226 16 4 489 9 1050 9
l1021 1 5 -50z m1608 -680 c138 -20 273 -118 334 -243 103 -212 15 -468 -197
-572 -99 -48 -147 -55 -403 -55 l-223 0 -20 -26 c-26 -33 -27 -65 -2 -95 l19
-24 416 -3 415 -3 21 -26 c27 -34 25 -69 -5 -98 l-24 -25 -1766 0 -1765 0 0
75 0 75 1191 2 1191 3 19 24 c25 30 24 76 -1 101 -20 20 -33 20 -1210 20
l-1191 0 3 78 3 77 1615 5 1615 5 46 27 c171 100 194 341 45 463 -86 70 101
65 -2280 65 -1700 0 -2156 3 -2176 13 -13 7 -31 25 -40 40 -13 24 -13 30 0 54
9 15 27 33 40 40 20 10 469 13 2145 13 1261 0 2146 -4 2185 -10z m-3710 -430
l0 -130 -227 0 -228 0 0 130 0 130 228 0 227 0 0 -130z m360 -319 l0 -449 -94
-51 c-52 -28 -97 -51 -100 -51 -3 0 -6 225 -6 500 l0 500 100 0 100 0 0 -449z
m3360 434 c58 -30 80 -118 46 -183 -34 -67 89 -62 -1666 -62 l-1590 0 0 130 0
130 1590 0 c1403 0 1594 -2 1620 -15z m-3720 -475 l0 -80 -300 0 c-201 0 -307
4 -324 11 -36 17 -54 65 -35 98 27 49 43 51 362 51 l297 0 0 -80z m0 -304 l0
-74 -152 -4 c-144 -3 -156 -5 -210 -31 -209 -103 -199 -410 17 -509 l50 -23
2173 -5 2174 -5 19 -24 c26 -32 24 -67 -6 -96 l-24 -25 -2155 0 c-1559 0
-2170 3 -2208 11 -224 48 -378 270 -340 490 28 164 137 294 292 346 56 19 87
23 218 23 l152 0 0 -74z m2 -297 c6 -80 27 -112 75 -112 16 0 103 39 203 91
l174 92 1711 0 1710 0 0 -135 0 -135 -2065 0 c-1946 0 -2067 1 -2099 18 -50
25 -74 63 -74 116 0 52 21 89 66 116 27 17 51 20 163 20 l131 0 5 -71z"/>
</g>
</svg>
