<?xml version="1.0" standalone="no"?>
<!DOCTYPE svg PUBLIC "-//W3C//DTD SVG 20010904//EN"
 "http://www.w3.org/TR/2001/REC-SVG-20010904/DTD/svg10.dtd">
<svg version="1.0" xmlns="http://www.w3.org/2000/svg"
 width="512.000000pt" height="512.000000pt" viewBox="0 0 512.000000 512.000000"
 preserveAspectRatio="xMidYMid meet">

<g transform="translate(40.000000,470.000000) scale(0.085000,-0.085000)"
fill="#ffffff" stroke="none">
<path d="M2330 5110 c-494 -48 -950 -230 -1350 -538 -195 -150 -448 -432 -594
-662 -63 -99 -186 -351 -230 -471 -49 -134 -102 -340 -128 -499 -31 -195 -31
-565 0 -760 45 -276 116 -498 237 -745 132 -269 269 -460 489 -681 221 -220
412 -357 681 -489 247 -121 469 -192 745 -237 195 -31 565 -31 760 0 276 45
498 116 745 237 269 132 460 269 681 489 220 221 357 412 489 681 88 179 132
296 180 476 63 240 78 371 78 649 0 278 -15 409 -78 649 -48 180 -92 297 -180
476 -132 269 -269 460 -489 681 -221 220 -412 357 -681 489 -246 121 -474 193
-740 235 -147 23 -475 34 -615 20z m500 -284 c536 -67 1014 -307 1383 -696
662 -696 817 -1730 390 -2584 -288 -576 -799 -1001 -1416 -1180 -398 -115
-856 -115 -1254 0 -617 179 -1128 604 -1416 1180 -318 635 -318 1393 0 2028
344 687 997 1151 1758 1251 137 18 416 18 555 1z"/>
<path d="M2131 4073 c-19 -10 -44 -31 -55 -46 -20 -28 -21 -41 -24 -493 l-3
-464 -452 0 c-498 0 -495 0 -541 -63 -20 -28 -21 -39 -21 -447 0 -408 1 -419
21 -447 46 -63 43 -63 542 -63 l452 0 0 -452 c0 -499 0 -496 63 -542 28 -20
39 -21 447 -21 408 0 419 1 447 21 63 46 63 43 63 542 l0 452 453 0 c498 0
495 0 541 63 20 28 21 39 21 447 0 408 -1 419 -21 447 -46 63 -43 63 -541 63
l-453 0 0 453 c0 498 0 495 -63 541 -28 20 -42 21 -435 24 -373 2 -410 1 -441
-15z m659 -715 c0 -499 0 -496 63 -542 28 -20 41 -21 493 -24 l464 -3 0 -229
0 -230 -452 0 c-499 0 -496 0 -542 -63 -20 -28 -21 -41 -24 -493 l-3 -464
-229 0 -229 0 -3 464 c-3 452 -4 465 -24 493 -46 63 -43 63 -541 63 l-453 0 0
230 0 229 464 3 c452 3 465 4 493 24 63 46 63 43 63 542 l0 452 230 0 230 0 0
-452z"/>
</g>
</svg>
