<?xml version="1.0" standalone="no"?>
<!DOCTYPE svg PUBLIC "-//W3C//DTD SVG 20010904//EN"
 "http://www.w3.org/TR/2001/REC-SVG-20010904/DTD/svg10.dtd">
<svg version="1.0" xmlns="http://www.w3.org/2000/svg"
 width="512.000000pt" height="512.000000pt" viewBox="0 0 512.000000 512.000000"
 preserveAspectRatio="xMidYMid meet">

<g transform="translate(40.000000,470.000000) scale(0.085000,-0.085000)"
fill="#ffffff" stroke="none">
<path d="M1489 5094 c-7 -9 -20 -37 -29 -63 -26 -79 -36 -81 -368 -81 -244 0
-289 -2 -319 -17 -167 -79 -171 -309 -8 -396 39 -22 49 -22 561 -25 l522 -3
26 -24 c36 -33 36 -92 0 -126 -25 -24 -28 -24 -282 -29 -286 -6 -300 -9 -367
-75 -49 -50 -75 -110 -76 -179 -2 -65 18 -96 61 -96 36 0 60 29 60 70 0 48 34
112 72 135 30 18 57 20 288 25 282 6 289 7 347 74 93 105 61 264 -66 329 l-55
27 -502 0 c-540 0 -543 0 -570 51 -21 41 -17 65 15 101 l29 33 309 5 c335 5
337 6 395 67 56 58 77 163 40 196 -24 21 -66 22 -83 1z"/>
<path d="M2280 5090 c-11 -11 -20 -32 -21 -47 0 -16 -21 -390 -47 -832 l-47
-803 -285 -154 c-157 -84 -288 -154 -292 -154 -3 0 -8 63 -10 141 -3 134 -4
142 -27 160 -17 14 -39 19 -81 19 l-59 0 -3 160 c-3 137 -6 162 -21 177 -16
17 -46 18 -386 18 -349 0 -370 -1 -390 -19 -20 -18 -21 -29 -21 -178 l0 -158
-65 0 c-108 0 -105 8 -105 -293 0 -297 -4 -287 98 -287 53 0 62 -3 62 -18 0
-29 -189 -2581 -196 -2644 l-6 -58 -169 0 c-156 0 -171 -2 -189 -20 -24 -24
-25 -48 -4 -78 l15 -22 2528 0 c2436 0 2529 1 2544 18 37 40 4 102 -53 102
l-30 0 -2 1985 c-3 1971 -3 1984 -23 1999 -11 9 -29 16 -41 16 -11 0 -82 -41
-157 -92 -75 -50 -138 -89 -140 -87 -2 2 -20 258 -40 568 -31 484 -38 566 -53
582 -16 18 -36 19 -330 19 -172 0 -320 -3 -328 -6 -9 -4 -21 -14 -26 -24 -5
-10 -32 -406 -60 -880 -28 -475 -52 -866 -55 -870 -6 -9 -301 -210 -309 -210
-3 0 -6 202 -6 449 l0 450 -27 20 c-17 14 -33 19 -47 15 -12 -4 -88 -42 -169
-86 -82 -44 -151 -77 -154 -74 -4 3 -23 270 -44 592 -32 510 -39 588 -55 605
-16 18 -34 19 -336 19 -305 0 -319 -1 -338 -20z m573 -177 c15 -161 70 -1094
65 -1098 -3 -3 -142 -79 -309 -169 -244 -132 -305 -161 -307 -147 -2 10 15
330 38 712 22 382 40 711 40 732 l0 37 234 0 233 0 6 -67z m1610 -5 c4 -40 21
-295 38 -567 27 -419 30 -495 18 -502 -8 -4 -149 -100 -314 -213 -165 -112
-301 -203 -301 -203 -1 1 18 333 42 737 24 404 43 754 44 778 l0 42 234 0 233
0 6 -72z m427 -2883 l0 -1905 -1640 0 -1640 0 0 31 c0 17 -43 607 -95 1312
-52 705 -96 1302 -97 1327 l-3 45 50 3 c28 1 59 4 71 7 23 5 44 43 44 79 0 21
97 76 862 487 474 255 865 466 870 467 4 2 8 -196 8 -440 0 -457 2 -477 41
-501 9 -5 27 -7 40 -4 13 4 350 229 749 501 399 272 728 495 733 495 4 1 7
-856 7 -1904z m-3610 1510 l0 -115 -280 0 -280 0 0 115 0 115 280 0 280 0 0
-115z m168 -407 l-3 -163 -447 -3 -448 -2 0 165 0 165 450 0 450 0 -2 -162z
m-63 -1648 l100 -1355 -484 -3 c-266 -1 -486 -1 -488 2 -2 2 42 610 97 1351
55 741 100 1351 100 1356 0 6 118 8 287 7 l288 -3 100 -1355z"/>
<path d="M2101 2497 c-15 -7 -28 -26 -33 -45 -5 -18 -8 -158 -6 -312 3 -257 4
-280 22 -299 l19 -21 1166 0 c1040 0 1169 2 1189 16 22 15 22 16 22 322 0 169
-4 312 -8 319 -4 6 -20 17 -35 22 -43 17 -2304 15 -2336 -2z m569 -332 l0
-215 -240 0 -240 0 0 215 0 215 240 0 240 0 0 -215z m540 0 l0 -215 -205 0
-205 0 0 215 0 215 205 0 205 0 0 -215z m540 0 l0 -215 -205 0 -205 0 0 215 0
215 205 0 205 0 0 -215z m608 -2 l2 -213 -240 0 -240 0 0 215 0 215 238 -2
237 -3 3 -212z"/>
<path d="M2084 1519 c-17 -19 -19 -38 -19 -166 0 -140 1 -145 24 -164 30 -24
56 -24 81 1 18 18 20 33 20 168 0 132 -2 151 -18 165 -25 23 -65 21 -88 -4z"/>
<path d="M2657 1522 c-14 -16 -17 -43 -17 -165 0 -134 2 -149 20 -167 25 -25
51 -25 81 -1 23 19 24 24 24 164 0 128 -2 147 -19 166 -23 26 -67 27 -89 3z"/>
<path d="M3230 1520 c-18 -18 -20 -33 -20 -164 0 -144 0 -145 26 -165 34 -27
50 -26 79 4 24 23 25 29 25 155 0 157 -12 189 -67 190 -13 0 -32 -9 -43 -20z"/>
<path d="M3814 1532 c-27 -18 -34 -56 -34 -182 0 -126 1 -132 25 -155 13 -14
29 -25 35 -25 16 0 53 21 62 34 4 6 8 74 8 151 0 111 -3 145 -16 163 -15 22
-57 30 -80 14z"/>
<path d="M4377 1522 c-14 -16 -17 -43 -17 -170 0 -145 1 -152 22 -166 30 -21
54 -20 78 4 18 18 20 33 20 168 0 132 -2 151 -18 165 -24 22 -65 21 -85 -1z"/>
<path d="M2093 922 c-23 -15 -33 -65 -33 -173 0 -119 15 -178 47 -180 31 -2
47 2 66 18 15 14 17 36 17 163 0 130 -2 149 -18 163 -19 18 -59 22 -79 9z"/>
<path d="M2657 912 c-14 -16 -17 -42 -17 -163 0 -79 4 -149 8 -156 13 -20 55
-31 79 -20 33 15 43 58 43 178 0 106 -10 156 -33 171 -22 14 -64 8 -80 -10z"/>
<path d="M3226 908 c-13 -18 -16 -52 -16 -164 0 -127 2 -143 20 -159 27 -24
70 -22 92 5 15 19 18 42 18 159 0 158 -8 181 -65 181 -24 0 -39 -7 -49 -22z"/>
<path d="M3799 913 c-11 -12 -14 -53 -14 -164 0 -125 3 -151 17 -165 21 -22
64 -21 88 1 18 16 20 32 20 165 0 130 -2 149 -18 163 -24 22 -76 22 -93 0z"/>
<path d="M4376 914 c-13 -13 -16 -42 -16 -164 0 -164 5 -180 60 -180 55 0 60
16 60 180 0 164 -5 180 -60 180 -16 0 -36 -7 -44 -16z"/>
<path d="M119 4612 c-123 -64 -155 -220 -67 -326 56 -69 64 -70 348 -76 219
-4 260 -8 287 -23 45 -24 63 -56 72 -123 12 -85 67 -113 111 -56 19 23 21 35
15 77 -13 103 -64 178 -147 219 -51 26 -55 26 -285 26 -248 0 -290 6 -312 48
-27 51 10 132 61 132 22 0 60 18 70 34 14 20 8 56 -12 76 -28 28 -78 25 -141
-8z"/>
</g>
</svg>
