<?xml version="1.0" standalone="no"?>
<!DOCTYPE svg PUBLIC "-//W3C//DTD SVG 20010904//EN"
 "http://www.w3.org/TR/2001/REC-SVG-20010904/DTD/svg10.dtd">
<svg version="1.0" xmlns="http://www.w3.org/2000/svg"
 width="400.000000pt" height="400.000000pt" viewBox="0 0 512.000000 512.000000"
 preserveAspectRatio="xMidYMid meet">

<g transform="translate(40.000000,470.000000) scale(0.085000,-0.085000)"
fill="#ffffff" stroke="none">
<path d="M557 4562 l-557 -557 0 -298 0 -297 185 0 185 0 0 -265 0 -265 110 0
110 0 -2 -772 -3 -773 -107 -3 -108 -3 0 -264 0 -265 -160 0 -160 0 0 -400 0
-400 2535 0 2535 0 0 400 0 400 -215 0 -215 0 0 265 0 265 -105 0 -105 0 0
775 0 775 105 0 105 0 0 265 0 265 188 2 187 3 3 295 2 295 -557 557 -558 558
-1420 0 -1420 0 -558 -558z m3841 -115 l512 -513 -2 -179 -3 -180 -2372 -3
-2373 -2 0 182 0 183 512 512 513 513 1350 0 1350 0 513 -513z m-2848 -1222
l0 -185 -510 0 -510 0 0 185 0 185 510 0 510 0 0 -185z m1810 -80 l0 -265 105
0 105 0 0 -775 0 -775 -105 0 -105 0 0 -265 0 -265 -80 0 -80 0 0 640 0 640
-665 0 -665 0 0 -640 0 -640 -80 0 -80 0 0 265 0 264 -107 3 -108 3 -3 773 -2
772 110 0 110 0 0 265 0 265 825 0 825 0 0 -265z m1170 80 l0 -185 -505 0
-505 0 0 185 0 185 505 0 505 0 0 -185z m-3200 -1120 l0 -775 -290 0 -290 0 0
775 0 775 290 0 290 0 0 -775z m2990 0 l0 -775 -292 2 -293 3 -3 773 -2 772
295 0 295 0 0 -775z m-1870 -745 l0 -560 -210 0 -210 0 0 560 0 560 210 0 210
0 0 -560z m590 0 l0 -560 -215 0 -215 0 0 560 0 560 215 0 215 0 0 -560z
m-1490 -375 l0 -185 -510 0 -510 0 0 185 0 185 510 0 510 0 0 -185z m2980 0
l0 -185 -505 0 -505 0 0 185 0 185 505 0 505 0 0 -185z m430 -585 l0 -240
-2375 0 -2375 0 0 240 0 240 2375 0 2375 0 0 -240z"/>
<path d="M2409 4827 c-69 -29 -119 -66 -153 -116 -116 -167 -73 -390 95 -497
169 -107 400 -41 489 140 71 145 41 299 -82 412 -90 83 -234 108 -349 61z
m208 -156 c63 -29 98 -88 98 -165 -1 -109 -72 -180 -181 -181 -79 0 -136 35
-166 102 -72 163 86 317 249 244z"/>
<path d="M720 3970 l0 -80 1813 2 1812 3 3 78 3 77 -1816 0 -1815 0 0 -80z"/>
<path d="M2441 3189 c-229 -45 -390 -278 -352 -511 58 -363 502 -509 760 -250
141 140 174 336 88 515 -89 186 -292 286 -496 246z m175 -164 c209 -62 277
-330 123 -484 -123 -123 -336 -108 -439 32 -165 224 50 531 316 452z"/>
<path d="M960 2105 l0 -585 80 0 80 0 0 585 0 585 -80 0 -80 0 0 -585z"/>
<path d="M3950 2105 l0 -585 80 0 80 0 0 585 0 585 -80 0 -80 0 0 -585z"/>
<path d="M2160 1360 l0 -80 105 0 105 0 0 80 0 80 -105 0 -105 0 0 -80z"/>
<path d="M2690 1360 l0 -80 110 0 110 0 0 80 0 80 -110 0 -110 0 0 -80z"/>
<path d="M400 400 l0 -80 1520 0 1520 0 0 80 0 80 -1520 0 -1520 0 0 -80z"/>
<path d="M3600 400 l0 -80 585 0 585 0 0 80 0 80 -585 0 -585 0 0 -80z"/>
</g>
</svg>
