<svg xmlns="http://www.w3.org/2000/svg" viewBox="0 0 250 250"><defs><style>.cls-1,.cls-2,.cls-3{fill:none;stroke:#ffffff;}.cls-1,.cls-3{stroke-linecap:round;}.cls-1{stroke-linejoin:round;}.cls-1,.cls-2{stroke-width:5px;}.cls-2,.cls-3{stroke-miterlimit:5;}.cls-3{stroke-width:3px;}</style></defs><g id="Layer_14" data-name="Layer 14"><polygon class="cls-1" points="218.06 218.31 33.16 218.31 33.16 137.38 51.9 137.38 218.06 137.38 218.06 218.31"/><polygon class="cls-1" points="52.1 113.91 125.61 100.77 198.85 113.91 198.85 137.38 51.9 137.38 52.1 113.91"/><rect style="fill:white;" x="42.66" y="147.75" width="6.26" height="6.14" rx="0.01"/><rect style="fill:white;" x="42.66" y="160.25" width="6.26" height="6.14" rx="0.01"/><rect style="fill:white;" x="42.66" y="172.75" width="6.26" height="6.14" rx="0.01"/><rect style="fill:white;" x="42.66" y="185.21" width="6.26" height="6.14" rx="0.01"/><rect style="fill:white;" x="42.66" y="197.7" width="6.26" height="6.14" rx="0.01"/><rect style="fill:white;" x="55.41" y="147.75" width="6.26" height="6.14" rx="0.01"/><rect style="fill:white;" x="68.17" y="147.75" width="6.26" height="6.14" rx="0.01"/><rect style="fill:white;" x="55.41" y="160.25" width="6.26" height="6.14" rx="0.01"/><rect style="fill:white;" x="68.17" y="160.25" width="6.26" height="6.14" rx="0.01"/><rect style="fill:white;" x="55.41" y="172.75" width="6.26" height="6.14" rx="0.01"/><rect style="fill:white;" x="68.17" y="172.75" width="6.26" height="6.14" rx="0.01"/><rect style="fill:white;" x="55.41" y="185.21" width="6.26" height="6.14" rx="0.01"/><rect style="fill:white;" x="68.17" y="185.21" width="6.26" height="6.14" rx="0.01"/><rect style="fill:white;" x="55.41" y="197.7" width="6.26" height="6.14" rx="0.01"/><rect style="fill:white;" x="68.17" y="197.7" width="6.26" height="6.14" rx="0.01"/><rect style="fill:white;" x="97.14" y="160.78" width="6.26" height="6.14" rx="0.01"/><rect style="fill:white;" x="97.14" y="148.28" width="6.26" height="6.14" rx="0.01"/><rect style="fill:white;" x="109.9" y="160.78" width="6.26" height="6.14" rx="0.01"/><rect style="fill:white;" x="109.9" y="148.28" width="6.26" height="6.14" rx="0.01"/><rect style="fill:white;" x="122.65" y="160.78" width="6.26" height="6.14" rx="0.01"/><rect style="fill:white;" x="122.65" y="148.28" width="6.26" height="6.14" rx="0.01"/><rect style="fill:white;" x="135.37" y="160.78" width="6.26" height="6.14" rx="0.01"/><rect style="fill:white;" x="135.37" y="148.28" width="6.26" height="6.14" rx="0.01"/><rect style="fill:white;" x="148.12" y="160.78" width="6.26" height="6.14" rx="0.01"/><rect style="fill:white;" x="148.12" y="148.28" width="6.26" height="6.14" rx="0.01"/><rect style="fill:white;" x="176.41" y="147.77" width="6.26" height="6.14" rx="0.01"/><rect style="fill:white;" x="189.16" y="147.77" width="6.26" height="6.14" rx="0.01"/><rect style="fill:white;" x="201.92" y="147.77" width="6.26" height="6.14" rx="0.01"/><rect style="fill:white;" x="176.41" y="160.27" width="6.26" height="6.14" rx="0.01"/><rect style="fill:white;" x="189.16" y="160.27" width="6.26" height="6.14" rx="0.01"/><rect style="fill:white;" x="201.92" y="160.27" width="6.26" height="6.14" rx="0.01"/><rect style="fill:white;" x="176.41" y="172.77" width="6.26" height="6.14" rx="0.01"/><rect style="fill:white;" x="189.16" y="172.77" width="6.26" height="6.14" rx="0.01"/><rect style="fill:white;" x="201.92" y="172.77" width="6.26" height="6.14" rx="0.01"/><rect style="fill:white;" x="176.41" y="185.23" width="6.26" height="6.14" rx="0.01"/><rect style="fill:white;" x="189.16" y="185.23" width="6.26" height="6.14" rx="0.01"/><rect style="fill:white;" x="201.92" y="185.23" width="6.26" height="6.14" rx="0.01"/><rect style="fill:white;" x="176.41" y="197.72" width="6.26" height="6.14" rx="0.01"/><rect style="fill:white;" x="189.16" y="197.72" width="6.26" height="6.14" rx="0.01"/><rect style="fill:white;" x="201.92" y="197.72" width="6.26" height="6.14" rx="0.01"/><line class="cls-2" x1="96.76" y1="175.83" x2="154.81" y2="175.84"/><line class="cls-2" x1="103.4" y1="175.82" x2="103.4" y2="216"/><line class="cls-2" x1="125.61" y1="175.82" x2="125.61" y2="216"/><line class="cls-2" x1="148.12" y1="175.84" x2="148.12" y2="218.31"/><line class="cls-2" x1="116.16" y1="200.79" x2="134.28" y2="200.77"/><line class="cls-2" x1="119.25" y1="125.41" x2="132" y2="125.41"/><line class="cls-2" x1="119.25" y1="125.41" x2="132" y2="125.41"/><line class="cls-2" x1="119.44" y1="125.41" x2="131.81" y2="125.41"/><line class="cls-2" x1="119.25" y1="125.41" x2="132" y2="125.41"/><line class="cls-2" x1="119.33" y1="125.41" x2="131.91" y2="125.41"/><line class="cls-2" x1="119.25" y1="125.41" x2="132" y2="125.41"/><line class="cls-2" x1="119.25" y1="125.41" x2="132" y2="125.41"/><line class="cls-2" x1="61.79" y1="125.41" x2="74.55" y2="125.41"/><line class="cls-2" x1="81.13" y1="125.41" x2="93.89" y2="125.41"/><line class="cls-2" x1="100.47" y1="125.41" x2="113.23" y2="125.41"/><line class="cls-2" x1="119.81" y1="125.41" x2="132.57" y2="125.41"/><line class="cls-2" x1="139.15" y1="125.41" x2="151.9" y2="125.41"/><line class="cls-2" x1="158.49" y1="125.41" x2="171.24" y2="125.41"/><line class="cls-2" x1="177.83" y1="125.41" x2="190.58" y2="125.41"/><polyline class="cls-2" points="73.23 110.13 73.23 77.14 182.67 77.14 182.67 110.13"/><polyline class="cls-3" points="126.19 77.14 125.44 35.86 125.37 32.47"/><rect style="fill:white;" class="cls-3" x="126.55" y="35.9" width="24.7" height="16.71"/></g></svg>