<svg xmlns="http://www.w3.org/2000/svg" viewBox="0 0 250 250"><defs><style>.a{fill:#ffffff;}</style></defs><path class="a" d="M155.84,167.52a7.27,7.27,0,1,0,7.27-7.23A7.25,7.25,0,0,0,155.84,167.52Z"/><path class="a" d="M62,67.21a3.3,3.3,0,0,0-3.3,3.3v16.7a3.3,3.3,0,0,0,6.6,0V70.51A3.3,3.3,0,0,0,62,67.21Z"/><path class="a" d="M78.42,67.21a3.3,3.3,0,0,0-3.3,3.3v16.7a3.3,3.3,0,0,0,6.6,0V70.51A3.3,3.3,0,0,0,78.42,67.21Z"/><path class="a" d="M94.85,67.21a3.3,3.3,0,0,0-3.3,3.3v16.7a3.3,3.3,0,0,0,6.6,0V70.51A3.3,3.3,0,0,0,94.85,67.21Z"/><path class="a" d="M111.28,67.21a3.3,3.3,0,0,0-3.3,3.3v16.7a3.3,3.3,0,0,0,6.6,0V70.51A3.3,3.3,0,0,0,111.28,67.21Z"/><path class="a" d="M62,99.18a3.3,3.3,0,0,0-3.3,3.3v16.7a3.3,3.3,0,0,0,6.6,0v-16.7A3.3,3.3,0,0,0,62,99.18Z"/><path class="a" d="M78.42,99.18a3.3,3.3,0,0,0-3.3,3.3v16.7a3.3,3.3,0,1,0,6.6,0v-16.7A3.3,3.3,0,0,0,78.42,99.18Z"/><path class="a" d="M94.85,99.18a3.3,3.3,0,0,0-3.3,3.3v16.7a3.3,3.3,0,0,0,6.6,0v-16.7A3.3,3.3,0,0,0,94.85,99.18Z"/><path class="a" d="M111.28,99.18a3.3,3.3,0,0,0-3.3,3.3v16.7a3.3,3.3,0,0,0,6.6,0v-16.7A3.3,3.3,0,0,0,111.28,99.18Z"/><path class="a" d="M62,131.15a3.3,3.3,0,0,0-3.3,3.3v16.7a3.3,3.3,0,0,0,6.6,0v-16.7A3.3,3.3,0,0,0,62,131.15Z"/><path class="a" d="M78.42,131.15a3.3,3.3,0,0,0-3.3,3.3v16.7a3.3,3.3,0,0,0,6.6,0v-16.7A3.3,3.3,0,0,0,78.42,131.15Z"/><path class="a" d="M94.85,131.15a3.3,3.3,0,0,0-3.3,3.3v16.7a3.3,3.3,0,1,0,6.6,0v-16.7A3.3,3.3,0,0,0,94.85,131.15Z"/><path class="a" d="M111.28,131.15a3.3,3.3,0,0,0-3.3,3.3v16.7a3.3,3.3,0,1,0,6.6,0v-16.7A3.29,3.29,0,0,0,111.28,131.15Z"/><path class="a" d="M37,216.28H150.4l.09,0,.08,0H213a3.3,3.3,0,1,0,0-6.6h-6V183.85l.21.17a3.3,3.3,0,0,0,5.34-2.6v-16.8a3.28,3.28,0,0,0-1.27-2.59l-18.73-14.67c0-.06,0-.11,0-.18V127.71h6.89A15.56,15.56,0,0,0,206,98a17.63,17.63,0,0,0,.48-4.11,17.93,17.93,0,0,0-35.86,0,17.38,17.38,0,0,0,.66,4.77,15.45,15.45,0,0,0-7.81,13.48,15.63,15.63,0,0,0,15.63,15.57H186v14.52L165.2,126a3.3,3.3,0,0,0-4.06,0l-30.65,23.93V56.64h1.44a3.3,3.3,0,0,0,3.3-3.3V37a3.3,3.3,0,0,0-3.3-3.3H41.34A3.3,3.3,0,0,0,38,37V53.34a3.3,3.3,0,0,0,3.3,3.3h1.45v153H37a3.3,3.3,0,0,0,0,6.6Zm142.11-95.17a9,9,0,0,1-2.65-17.54,3.3,3.3,0,0,0,2-4.64,11.14,11.14,0,0,1-1.21-5,11.33,11.33,0,0,1,22.66,0,11.14,11.14,0,0,1-1.09,4.79,3.27,3.27,0,0,0,0,2.91,3.31,3.31,0,0,0,2.33,1.75,9,9,0,0,1-1.69,17.77h-6.89v-1.19h0l4.88-7.64a3.27,3.27,0,0,0-4.89-4.25V96.62a3.3,3.3,0,1,0-6.6,0V101a3.23,3.23,0,0,0-3.36,4.61l3.36,7.29v8.18ZM44.64,40.3h84V50h-84Zm55.61,169.32H89.93V178.14h10.32Zm-16.92,0H73V178.14h10.3Zm89.2.06h-6.07V188a7.71,7.71,0,0,1,6.07,7.5Zm-12.67,0h-6.07V195.52a7.71,7.71,0,0,1,6.07-7.5Zm40.55,0H179.13V195.52a14.34,14.34,0,0,0-14.35-14.29h-3.24a14.34,14.34,0,0,0-14.35,14.29v14.16H127.51c-.11,0-.21-.06-.32-.06h-.35V177.89l36.32-28.35,37.25,29.15Zm-37.25-76.94L206,166.23v8.42l-40.76-31.9a3.28,3.28,0,0,0-4.06,0l-40.88,31.91v-8.42ZM114.93,162a3.28,3.28,0,0,0-1.27,2.59v16.8a3.32,3.32,0,0,0,1.85,3,3.37,3.37,0,0,0,1.45.33,3.31,3.31,0,0,0,2-.7l1.25-1v26.58H106.85V174.84a3.3,3.3,0,0,0-3.3-3.3H69.73a3.3,3.3,0,0,0-3.3,3.3v34.78h-17v-153h74.5V155Z"/></svg>
