<svg xmlns="http://www.w3.org/2000/svg" viewBox="0 0 250 250"><defs><style>.a{fill:#00000;}</style></defs><rect class="a" x="112.7" y="119.24" width="13.23" height="6.61"/><rect class="a" x="132.45" y="119.24" width="13.23" height="6.61"/><rect class="a" x="152.21" y="119.24" width="13.23" height="6.61"/><path class="a" d="M180,119.24H172v6.61h1.2c-12.23,11.69-21.71,23.22-30.89,34.37C125.19,181,109.06,200.6,77.21,219.15c-24.87,14.48-50.69,28.2-71.1,30.59a3.27,3.27,0,0,0-.94.26H30.78c15.92-6,33.07-15.42,49.76-25.13,32.87-19.15,49.37-39.21,66.84-60.45,9.11-11.07,18.53-22.53,30.6-34l4.55-4.37c15.68-15.13,33.84-32.65,67.47-44.3v-7C215.28,86.2,196.15,103.74,180,119.24Z"/><path class="a" d="M227.79,166.18c-10.2,11.08-16.19,19.77-22.53,29-7.66,11.12-15.58,22.63-31.95,39.59A186.33,186.33,0,0,1,156.71,250h10.22q5.81-5.12,11.15-10.66c16.74-17.35,24.82-29.09,32.63-40.43,6.21-9,12.06-17.52,21.94-28.25A189.53,189.53,0,0,1,250,154.33v-8.52A201.34,201.34,0,0,0,227.79,166.18Z"/><path class="a" d="M144.19,214.24a157.72,157.72,0,0,1-12.74,11.64l-.14.13,4.19,5.12.18-.14a159.69,159.69,0,0,0,13.23-12.17l.18-.13-4.77-4.63Z"/><path class="a" d="M118,236.86l-.18.13c-5.51,4.46-9.88,7.9-13.8,10.8l-.18.14,1.55,2.07h6.68c3.06-2.37,6.32-5,9.9-7.85l-.13-.13.17-.18Z"/><path class="a" d="M215.67,138l.27.22v-.53l-4.37-5.38v.53a178.06,178.06,0,0,0-13.23,12l-.13.17,4.68,4.68.13-.18C206.94,145.58,211.22,141.7,215.67,138Z"/><path class="a" d="M191.42,162.33l.13-.17L186.44,158l-.13.17c-3.53,4.37-6.93,8.87-10.63,14.25h-.62l5.82,4,.13-.17C184.76,170.89,188.07,166.48,191.42,162.33Z"/><path class="a" d="M160.73,205.29c4.06-5.16,7.54-10.24,10.41-14.47l.13-.22-5.47-3.7-.13.17c-2.82,4.24-6.31,9.18-10.15,14.12l-.13.17,5.21,4.1Z"/><path class="a" d="M229.78,127.63c4.72-3.13,9.71-6.13,14.87-8.95l.09-.09-3.09-5.82-.18.09c-5.38,2.91-10.49,6-15.3,9.21h-.35l3.79,5.69Z"/><path class="a" d="M61.23,93.52a7.29,7.29,0,1,0,7.29-7.25A7.28,7.28,0,0,0,61.23,93.52Z"/><path class="a" d="M22.27,135.77a3.31,3.31,0,0,0,0,6.62H55.72l.1,0,.11,0h58.84a3.31,3.31,0,1,0,0-6.62H109.3V107.36l3.44,2.69a3.26,3.26,0,0,0,2,.71,3.35,3.35,0,0,0,1.45-.34,3.3,3.3,0,0,0,1.86-3V90.62A3.32,3.32,0,0,0,116.81,88L70.62,51.86a3.29,3.29,0,0,0-4.07,0L20.24,88A3.26,3.26,0,0,0,19,90.62v16.83a3.3,3.3,0,0,0,5.34,2.6l3.5-2.73v28.45Zm43,0H59.13V121.58a7.73,7.73,0,0,1,6.09-7.52Zm12.7,0H71.83V114.06a7.74,7.74,0,0,1,6.09,7.52Zm24.76-32.09v32.09H84.53V121.58a14.38,14.38,0,0,0-14.39-14.33H66.9a14.37,14.37,0,0,0-14.38,14.33v14.19H34.43V103.89a3.21,3.21,0,0,0-.37-1.45L68.58,75.5l34.36,26.89A3.23,3.23,0,0,0,102.68,103.68Zm-77.1-3V92.23l43-33.57,42.89,33.57v8.43l-40.85-32a3.29,3.29,0,0,0-4.07,0Z"/></svg>