<?xml version="1.0" standalone="no"?>
<!DOCTYPE svg PUBLIC "-//W3C//DTD SVG 20010904//EN"
 "http://www.w3.org/TR/2001/REC-SVG-20010904/DTD/svg10.dtd">
<svg version="1.0" xmlns="http://www.w3.org/2000/svg"
 width="512.000000pt" height="512.000000pt" viewBox="0 0 512.000000 512.000000"
 preserveAspectRatio="xMidYMid meet">

<g transform="translate(40.000000,470.000000) scale(0.085000,-0.085000)"
fill="#ffffff" stroke="none">
<path d="M575 4786 c-37 -17 -70 -52 -84 -89 -8 -20 -11 -640 -11 -2042 l0
-2013 -109 -4 c-92 -2 -114 -6 -137 -24 -53 -39 -69 -71 -69 -134 0 -63 16
-95 69 -134 l27 -21 1819 0 1819 0 27 21 c53 39 69 71 69 134 0 63 -16 95 -69
134 -26 20 -42 21 -376 24 l-349 3 -3 269 c-3 253 -4 270 -24 296 -11 15 -33
37 -48 48 -27 21 -38 21 -566 21 -528 0 -539 0 -566 -21 -15 -11 -37 -33 -48
-48 -20 -26 -21 -43 -24 -297 l-3 -269 -559 0 -560 0 0 1920 0 1920 480 0 479
0 3 -269 c3 -254 4 -271 24 -297 11 -15 33 -37 48 -48 27 -21 39 -21 616 -24
l589 -2 3 -270 c3 -253 4 -270 24 -296 11 -15 33 -37 48 -48 27 -21 39 -21
617 -24 l589 -2 2 -1390 c3 -1385 3 -1389 24 -1416 51 -68 53 -69 294 -69 241
0 243 1 294 69 29 39 29 133 0 172 -44 60 -67 69 -185 72 l-109 4 -2 1388 c-3
1385 -3 1389 -24 1416 -11 15 -33 37 -48 48 -27 21 -39 21 -616 24 l-589 2 -3
270 c-3 253 -4 270 -24 296 -11 15 -33 37 -48 48 -27 21 -39 21 -616 24 l-589
2 -3 270 c-3 253 -4 270 -24 296 -11 15 -33 37 -48 48 -27 21 -38 21 -714 23
-557 2 -693 0 -717 -11z m2305 -3986 l0 -160 -320 0 -320 0 0 160 0 160 320 0
320 0 0 -160z"/>
<path d="M1215 4146 c-41 -18 -83 -69 -90 -109 -3 -18 -4 -550 -3 -1184 3
-1145 3 -1152 24 -1179 39 -53 71 -69 134 -69 63 0 95 16 134 69 21 27 21 31
21 1206 0 1175 0 1179 -21 1206 -11 15 -32 37 -46 47 -33 25 -113 32 -153 13z"/>
<path d="M2495 3506 c-41 -18 -83 -69 -90 -109 -3 -18 -5 -406 -3 -864 3 -822
3 -832 24 -859 39 -53 71 -69 134 -69 63 0 95 16 134 69 21 27 21 34 21 886 0
852 0 859 -21 886 -11 15 -32 37 -46 47 -33 25 -113 32 -153 13z"/>
<path d="M3775 2866 c-41 -18 -83 -69 -90 -109 -3 -18 -5 -262 -3 -544 3 -499
4 -512 24 -539 39 -53 71 -69 134 -69 63 0 95 16 134 69 21 27 21 38 21 566 0
528 0 539 -21 566 -11 15 -32 37 -46 47 -33 25 -113 32 -153 13z"/>
</g>
</svg>
