<svg xmlns="http://www.w3.org/2000/svg" viewBox="0 0 250 250"><defs><style>.a{fill:#ffffff;}</style></defs><path class="a" d="M213.72,157.94l-4.8-4.8A8.75,8.75,0,0,0,200,151c-5.42-5.83-9.61-10.62-11.77-13.5-1.33-1.77-3.23-6.4-5.24-11.3-3.88-9.46-8.71-21.23-15-27.32a96.43,96.43,0,0,0-14.61-11.61c-2-1.38-4-2.68-5.87-4.23-5-4.07-17.84-5.5-25.89-6L90.91,45.86,41.81,96.91l36.46,35.62c-2.27-.16-4.57-.25-6.86-.25-18.74,0-37.71,5.58-37.71,16.24V188h0c.08,10.61,19,16.16,37.71,16.16S109,198.61,109.11,188h0V162.69l16.38,16,13.8-14.18a65.91,65.91,0,0,0,12.06,2.89c4,.68,8.12,1.39,9.83,2.61a60.71,60.71,0,0,1,9.57,9.07,8.81,8.81,0,0,0,1.06,11.14l4.8,4.8a8.8,8.8,0,0,0,12.45,0l24.65-24.65A8.79,8.79,0,0,0,213.72,157.94ZM91,55.33l7,7.11c-2.08,1.25-6.2,2.47-11.37-2.55ZM58.17,103.66l-7.06-6.9,5-5.19C57.34,92.86,62.34,98.65,58.17,103.66Zm13.24,35.22c18.71,0,31.11,5.8,31.11,9.64s-12.4,9.63-31.11,9.63-31.11-5.79-31.11-9.63S52.71,138.88,71.41,138.88ZM40.3,158.08c7.16,4.4,19.17,6.67,31.11,6.67s24-2.27,31.11-6.67v3.57h0c0,1.1-1.17,2.48-3.23,3.78-5.65,3.62-16.33,5.86-27.87,5.86s-22.23-2.24-27.9-5.86c-2.05-1.3-3.22-2.68-3.22-3.78Zm0,13.09c6.81,4.21,18.39,6.72,31.12,6.72s24.32-2.52,31.1-6.72v3.61h0c0,1.09-1.17,2.47-3.23,3.78-5.65,3.61-16.33,5.86-27.87,5.86-1.44,0-2.87,0-4.28-.11-9.85-.48-18.66-2.59-23.62-5.76-2.05-1.3-3.22-2.68-3.22-3.77Zm31.12,26.37c-18.71,0-31.12-5.8-31.12-9.64v-3.6c6.81,4.2,18.39,6.72,31.12,6.72a92.43,92.43,0,0,0,9.41-.48c1.86-.19,14.66-2.64,19.26-4.88.87-.43,1.67-.89,2.43-1.36v3.6h0C102.52,191.74,90.12,197.54,71.42,197.54Zm54-28.18-16.26-15.89v-4.95c0-7.15-8.54-12-19.82-14.43L62.89,108.28c3.76-4.18,4.57-9.42,2.23-14.86a22.46,22.46,0,0,0-4.44-6.6L82,64.65c4.23,4.09,8.38,5.52,12,5.52a14.51,14.51,0,0,0,8.64-3L146,111.34c1.68,6.94,0,19.92-3.82,22.16-1.39.79-5.77-3.51-8.64-6.38a63.31,63.31,0,0,0-8.32-7.37A18.22,18.22,0,0,0,127,112,18.42,18.42,0,1,0,101.72,129c4.78,4,14.35,14.69,21.39,22.57,2,2.24,3.79,4.24,5.22,5.82a24.76,24.76,0,0,0,4.82,4Zm-5-57.41a11.78,11.78,0,0,1-1,4.6c-14.71-6.76-20-2.54-21.67.06a11.67,11.67,0,0,1-1-4.66,11.82,11.82,0,0,1,23.64,0Zm44.69,52.72c-2.94-2.12-7.41-2.89-12.58-3.77-4.65-.79-9.45-1.61-13-3.44a21.85,21.85,0,0,1-6.27-4.5c-1.43-1.57-3.21-3.56-5.19-5.77-7.3-8.18-17.31-19.38-22.36-23.49a18.48,18.48,0,0,0-1.52-1.15,2,2,0,0,1-1-2.28c.45-.76,4.49-2.4,16.34,3.69,3.1,1.62,6.26,4.77,9.31,7.82,5.32,5.32,10.81,10.82,16.65,7.41,7.86-4.64,9-22.56,6.58-30.5l-.23-.78L128.72,84.36c7.18.9,12.66,2.3,14.56,3.84,2.13,1.74,4.18,3.12,6.35,4.58a90.91,90.91,0,0,1,13.72,10.9c5.32,5.12,9.86,16.18,13.5,25.06,2.37,5.77,4.24,10.32,6.06,12.76,2.25,3,6.3,7.64,11.72,13.48l-19.29,19.3A66.16,66.16,0,0,0,165.05,164.67Zm44,1.05-24.65,24.65a2.22,2.22,0,0,1-3.12,0l-4.8-4.8a2.2,2.2,0,0,1,0-3.11l24.65-24.66a2.22,2.22,0,0,1,3.12,0l4.8,4.8A2.21,2.21,0,0,1,209.06,165.72Z"/></svg>