<svg xmlns="http://www.w3.org/2000/svg" viewBox="0 0 250 250"><defs><style>.a{fill:#ffffff;}</style></defs><path class="a" d="M44.18,57.14H58V71.27H35.35v6.6H64.63V57.14H194.2V170.58H64.63V139.92h7.63v-6.6H64.63V89.62H35.35v6.6H58v74.36H53.5v47.51H205.33V170.58H200.8V57.14h13.85V31.91H44.18ZM198.73,211.49H60.1V177.18H198.73ZM50.78,38.51H208.05v12H50.78Z"/><rect class="a" x="137.91" y="133.32" width="13.2" height="6.6"/><rect class="a" x="157.62" y="133.32" width="13.2" height="6.6"/><rect class="a" x="118.19" y="133.32" width="13.2" height="6.6"/><rect class="a" x="177.33" y="133.32" width="13.2" height="6.6"/><rect class="a" x="98.48" y="133.32" width="13.2" height="6.6"/><rect class="a" x="78.77" y="133.32" width="13.2" height="6.6"/></svg>