<svg xmlns="http://www.w3.org/2000/svg" viewBox="0 0 250 250"><defs><style>.a{fill:#ffffff;}</style></defs><path class="a" d="M140.34,189.52a24.72,24.72,0,1,1-33.48-36.16,3.3,3.3,0,0,0-4.08-5.18A31.31,31.31,0,1,0,145.19,194a3.3,3.3,0,1,0-4.85-4.47Z"/><path class="a" d="M162.08,195.25h-3.74l-15.16-26.52a3.31,3.31,0,0,0-2.86-1.66H116.88V144.82H133a3.3,3.3,0,0,0,0-6.6H116.88v-7.53a15.36,15.36,0,1,0-6.6-.88V169a4.65,4.65,0,0,0,4.65,4.64H138.4l14.78,25.85a4.65,4.65,0,0,0,4,2.33h4.88a3.3,3.3,0,0,0,0-6.6ZM106.8,115.42a8.75,8.75,0,1,1,8.74,8.74A8.75,8.75,0,0,1,106.8,115.42Z"/><path class="a" d="M64.36,78.89a16.5,16.5,0,1,0-16.5-16.5A16.52,16.52,0,0,0,64.36,78.89Zm0-26.4a9.9,9.9,0,1,1-9.9,9.9A9.91,9.91,0,0,1,64.36,52.49Z"/><path class="a" d="M95,131.39V102.28a17.71,17.71,0,0,0-17.6-17.67l-25.82-.12h-.08a17.69,17.69,0,0,0-17.67,17.6l-.13,29.23a15.32,15.32,0,0,0,12,15v38.14a18.63,18.63,0,1,0,37.25,0V160.6a1.5,1.5,0,0,0,0-.22V146.32A15.32,15.32,0,0,0,95,131.39Zm-6.6,0a8.71,8.71,0,0,1-5.43,8V104.74a3.3,3.3,0,0,0-6.6,0v38.42c0,.08,0,.14,0,.22v41.09A12,12,0,0,1,67.63,196v-59.2a3.3,3.3,0,0,0-6.6,0V196a12,12,0,0,1-8.72-11.55V104.74a3.3,3.3,0,0,0-6.6,0v34.69a8.5,8.5,0,0,1-2.86-1.91,8.61,8.61,0,0,1-2.54-6.17l.13-29.24a11.08,11.08,0,0,1,11.07-11h.05l25.83.12a11.1,11.1,0,0,1,11,11.07Z"/><path class="a" d="M182.55,83.29a16.5,16.5,0,1,0-16.5-16.5A16.52,16.52,0,0,0,182.55,83.29Zm0-26.4a9.9,9.9,0,1,1-9.9,9.9A9.92,9.92,0,0,1,182.55,56.89Z"/><path class="a" d="M207.22,144.62c8.56-4,11.23-13.61,7.29-26.49l-4.43-14.36c-2.73-8.89-7.58-19.11-20.93-19.2l-12.86-.07h-.09c-13.22,0-17.95,9.58-20.84,19l-4.5,14.45c-4.09,13.21-1.6,22.66,7,26.71l-4,11.27a3.27,3.27,0,0,0,.41,3,3.32,3.32,0,0,0,2.7,1.39h6.92s0,.07,0,.1v24.08a18.62,18.62,0,1,0,37.24,0V160.38s0-.06,0-.1h6.94a3.3,3.3,0,0,0,3.11-4.39ZM170.5,184.46V160.38s0-.06,0-.1h9a3.28,3.28,0,0,0-.25,1.25V196A12,12,0,0,1,170.5,184.46Zm24-24.08v24.08A12,12,0,0,1,185.82,196v-34.5a3.28,3.28,0,0,0-.25-1.25h9S194.54,160.35,194.54,160.38Zm-32.89-6.7,12-34.24a3.22,3.22,0,0,0,.19-1.1V104.49a3.3,3.3,0,1,0-6.6,0v13.29l-7.23,20.55c-6-3.42-4.94-11.84-2.89-18.46l4.49-14.46C164.87,95,168.82,91.1,176.19,91.1h.07l12.86.07c7.44,0,11.41,4,14.66,14.55l4.42,14.35c2,6.53,3,14.86-3.2,18.27l-7.24-20.56V104.49a3.3,3.3,0,1,0-6.6,0v13.85a3.49,3.49,0,0,0,.19,1.1l12.06,34.24Z"/></svg>
