

<svg xmlns="http://www.w3.org/2000/svg" viewBox="0 0 250 250"><defs><style>.a{fill:#ffffff;}</style></defs><path class="a" d="M191.24,137.89V115.1h8A17.14,17.14,0,0,0,207.53,83a19.41,19.41,0,0,0,.81-5.58,19.59,19.59,0,1,0-38.55,4.88,17.12,17.12,0,0,0,6.82,32.79h8v18.71l-25-15.43a3.33,3.33,0,0,0-3.47,0l-10.3,6.38V100.63l.82.62A3.29,3.29,0,0,0,152,98.61V78.9a3.28,3.28,0,0,0-1.31-2.63L95.07,34.36a3.3,3.3,0,0,0-4,0L35.66,76.27a3.28,3.28,0,0,0-1.31,2.63V98.61a3.23,3.23,0,0,0,4.79,2.9V138H37a3.3,3.3,0,0,0-3.3,3.3v17.62a3.3,3.3,0,0,0,3.3,3.3h2.35a3.18,3.18,0,0,0-.21,1.07V213a3.3,3.3,0,0,0,3.3,3.3h155.1a3.3,3.3,0,0,0,3.3-3.3V171.23l8.95,5.53a3.3,3.3,0,0,0,5-2.8V154.3a3.3,3.3,0,0,0-1.56-2.81ZM166.18,98a10.5,10.5,0,0,1,8.48-10.33A3.31,3.31,0,0,0,177,83a12.92,12.92,0,0,1-1.26-5.58,13,13,0,1,1,24.58,5.87,3.28,3.28,0,0,0-.09,2.77,3.32,3.32,0,0,0,2.07,1.86,10.53,10.53,0,0,1-3.06,20.57h-8v-8.3l4.28-9.4a3.29,3.29,0,0,0-1.64-4.37,3.24,3.24,0,0,0-2.64,0V79.78a3.3,3.3,0,0,0-6.6,0V96.62L184,95.56a3.3,3.3,0,0,0-5.57,3.53l5.95,9.41h-7.74A10.48,10.48,0,0,1,166.18,98ZM41,80.54,93.09,41.13l52.29,39.42V92L95.07,54.07a3.3,3.3,0,0,0-4,0L41,92Zm4.79,16.1,47.35-35.8,48.36,36.45a3.29,3.29,0,0,0-2.17,3.08v28.08c0,.13.06.23.07.36L124.53,138H45.74Zm57,54.85a3.31,3.31,0,0,0-1.56,2.81v1.47a3.06,3.06,0,0,0-.81-.16h-60v-11h73.57Zm-57.2,10.72h54.83a3.52,3.52,0,0,0,.81-.16V174a3.3,3.3,0,0,0,5,2.8l7.51-4.65V209.7h-68V163.28A3.19,3.19,0,0,0,45.52,162.21Zm134.35,33H136.12v-7.11h43.75Zm-43.75,6.6h43.75v7.79H136.12Zm43.75-20.31H136.12v-6.36c0-1.09.69-1.85,1.3-1.85h41.15c.61,0,1.3.76,1.3,1.85Zm14.37,28.21h-7.77V175.13a8.2,8.2,0,0,0-7.9-8.45H137.42a8.2,8.2,0,0,0-7.9,8.45V209.7h-9.21V168l37.61-23.29,36.32,22.43Zm14-41.66-48.58-30a3.26,3.26,0,0,0-1.73-.49,3.3,3.3,0,0,0-1.74.49l-48.42,30v-11.9l50.16-31.06,50.31,31.07Z"/><path class="a" d="M127.09,125.46V105.52a3.3,3.3,0,0,0-3.3-3.3H62.54a3.3,3.3,0,0,0-3.3,3.3v19.94a3.3,3.3,0,0,0,3.3,3.3h61.25A3.3,3.3,0,0,0,127.09,125.46ZM99,108.82v13.34H85.14V108.82Zm-33.16,0h12.7v13.34H65.84Zm54.65,13.34H105.6V108.82h14.89Z"/><path class="a" d="M93.17,93A9.23,9.23,0,1,0,84,83.73,9.19,9.19,0,0,0,93.17,93Z"/></svg>
