<svg xmlns="http://www.w3.org/2000/svg" viewBox="0 0 250 250"><defs><style>.a{fill:#ffffff;}</style></defs><path class="a" d="M83.63,30.78a33.1,33.1,0,0,1,1.17-6.56L79.61,24a34.58,34.58,0,0,0-1.34,6.85,34,34,0,0,0,0,6.46L83.77,37A33.07,33.07,0,0,1,83.63,30.78Z"/><path class="a" d="M83.63,30.78a33.1,33.1,0,0,1,1.17-6.56L79.61,24a34.58,34.58,0,0,0-1.34,6.85,34,34,0,0,0,0,6.46L83.77,37A33.07,33.07,0,0,1,83.63,30.78Z"/><path class="a" d="M147.28,164.54l-7.57.56a215.21,215.21,0,0,1,3.34,24.49c.1,1.25.19,2.53.27,3.82l8.14,0c-.11-1.32-.23-2.62-.35-3.9A218.92,218.92,0,0,0,147.28,164.54Z"/><path class="a" d="M82.32,51.47a106.31,106.31,0,0,0,8.34,14.86l5.6-1.23a105.78,105.78,0,0,1-8.39-14.46Z"/><path class="a" d="M101.49,82.06C104.94,87,109.06,92.91,113,99.22l6.06-1.44c-4.11-6.32-8.33-12.24-11.86-17.15Z"/><path class="a" d="M130.42,117.15l-6.5,1.29a180.22,180.22,0,0,1,9.14,21.8l7-1A185.33,185.33,0,0,0,130.42,117.15Z"/><path class="a" d="M249.4,250c-2.28-45.71-12.5-84.78-31.21-118.17-15.8-28.2-35.75-47.57-51.78-63.13C149.13,51.92,136.65,39.81,140.46,27c3-10,15.23-19.06,36.47-27H42.13c-10,6.84-17.29,14.27-21.86,22.22C9.23,41.43,17.05,57.4,26.1,75.9c8,16.37,17.08,34.92,17.72,61.64.76,31.29-10,69.46-31.95,112.46ZM159.81,0C145.39,7.29,137,15.54,134.15,25c-5,16.9,8.73,30.23,27.74,48.69,15.71,15.26,35.27,34.25,50.58,61.57,18.14,32.36,28.07,70.32,30.32,114.77H150.45c.77-7.72,1.33-15.79,1.61-22.95l-8.72-.66c-.4,7.36-1.11,15.65-2.08,23.61H19.3c21.42-42.74,31.89-81,31.12-112.62C49.74,109.12,39.9,89,32,72.83,23.15,54.75,16.76,41.69,26,25.7,31.27,16.43,41,7.79,55,0h35.4a54,54,0,0,0-4.8,6l4.78.7A52.21,52.21,0,0,1,95.71,0Z"/><path class="a" d="M147.28,164.54l-7.57.56a215.21,215.21,0,0,1,3.34,24.49c.1,1.25.19,2.53.27,3.82l8.14,0c-.11-1.32-.23-2.62-.35-3.9A218.92,218.92,0,0,0,147.28,164.54Z"/><path class="a" d="M82.32,51.47a106.31,106.31,0,0,0,8.34,14.86l5.6-1.23a105.78,105.78,0,0,1-8.39-14.46Z"/><path class="a" d="M101.49,82.06C104.94,87,109.06,92.91,113,99.22l6.06-1.44c-4.11-6.32-8.33-12.24-11.86-17.15Z"/><path class="a" d="M130.42,117.15l-6.5,1.29a180.22,180.22,0,0,1,9.14,21.8l7-1A185.33,185.33,0,0,0,130.42,117.15Z"/></svg>
