<svg xmlns="http://www.w3.org/2000/svg" viewBox="0 0 250 250"><defs><style>.a{fill:#ffffff;}</style></defs><path class="a" d="M187.2,104.77H213a3.3,3.3,0,1,0,0-6.6h-9.72V54.41a3.3,3.3,0,0,0-3.3-3.3H49.28a3.3,3.3,0,0,0-3.3,3.3V82.9H37a3.3,3.3,0,1,0,0,6.6H49.11c.06,0,.11,0,.17,0H62.62a3.3,3.3,0,0,0,3.3-3.3V82.36H71v32.85h-5.1V99.6a3.3,3.3,0,0,0-3.3-3.3H49.28a.8.8,0,0,0-.15,0H37a3.3,3.3,0,1,0,0,6.6h9v92.66a3.3,3.3,0,0,0,3.3,3.3H200a3.3,3.3,0,0,0,3.3-3.3V118.2H213a3.3,3.3,0,1,0,0-6.6H200.28c-.11,0-.19-.06-.3-.06H187.2a3.3,3.3,0,0,0-3.3,3.3v15.59h-5.09V97.6h5.09v3.87A3.3,3.3,0,0,0,187.2,104.77ZM148.93,57.71H154v56.18h-5.1ZM154,192.29h-5.1v-48H154ZM175.51,91a3.3,3.3,0,0,0-3.3,3.3v39.43a3.29,3.29,0,0,0,3.3,3.3H187.2a3.3,3.3,0,0,0,3.3-3.3V118.14h6.18v74.15H160.63V141a3.3,3.3,0,0,0-3.3-3.3h-11.7a3.3,3.3,0,0,0-3.3,3.3v51.34H52.58V102.9h6.74v15.61a3.3,3.3,0,0,0,3.3,3.3h11.7a3.3,3.3,0,0,0,3.3-3.3V79.06a3.3,3.3,0,0,0-3.3-3.3H62.62a3.3,3.3,0,0,0-3.3,3.3v3.87H52.58V57.71h89.75v59.48a3.3,3.3,0,0,0,3.3,3.3h11.7a3.3,3.3,0,0,0,3.3-3.3V57.71h36.05V98.17H190.5V94.3a3.3,3.3,0,0,0-3.3-3.3Z"/></svg>