<svg xmlns="http://www.w3.org/2000/svg" viewBox="0 0 250 250"><defs><style>.a{fill:#ffffff;}</style></defs><path class="a" d="M200.65,203.59c-1.6-9.52-3-19.08-4.85-28.57-2.2-11.36-8.8-19.37-19.65-23.49-7.36-2.8-14.91-5.09-22.38-7.6a6.89,6.89,0,0,1-2.38-1.09l-.72-2c0-.31-.07-.55-.1-1a2.47,2.47,0,0,0-.2-.58h-.26l-2.58-7.2c1.93-1.93,3.87-3.85,5.78-5.81a31.53,31.53,0,0,0,7-11.48,2.73,2.73,0,0,1,1.74-1.45,14.15,14.15,0,0,0,8.86-21.59c-.24-.35-.42-.75-.63-1.13,4.26-2.19,6.28-5.38,5.83-9a8.83,8.83,0,0,0-7.91-7.82,1.86,1.86,0,0,1-1.2-1.25Q162,47.35,137.6,39a1.59,1.59,0,0,1-1.25-2h-22.7c.27,1.31-.48,1.71-1.58,2.09C96.4,44.54,86.81,55.46,83.19,71.59c-.35,1.57-.72,2.28-2.41,2.55-3.74.58-6.28,3.47-6.88,7.35a8.49,8.49,0,0,0,4.46,8.43l1.38.74c-.26.44-.45.78-.67,1.11a14,14,0,0,0,8.71,21.46,2.45,2.45,0,0,1,2.1,1.86,27.37,27.37,0,0,0,6.25,10.54c2,2.07,4,4.09,6.06,6.14l-4.14,11.52a5.84,5.84,0,0,1-.87.35q-10.77,3.45-21.46,7.13c-11.73,4-19.11,12.07-21.53,24.29-1.6,8.07-2.79,16.22-4.15,24.34-.76,4.5-1.5,9-2.26,13.6H202.22C201.68,209.79,201.17,206.69,200.65,203.59ZM162,107.25V91.9c2.92.47,5.3,3.59,5.59,7.17A8.17,8.17,0,0,1,162,107.25ZM102.41,50.67V68.21h5.51V47.07a27.44,27.44,0,0,1,5.75-2.31V68.19h5.68V42.92h11.22V68.18h5.74V44.77a26.85,26.85,0,0,1,5.77,2.31V68.17h5.57V50.68c6.68,5.32,12.29,13.47,13.69,23H88.76C89.69,65,95.24,56.36,102.41,50.67ZM88,107.15c-2.85-.47-5.23-3.52-5.58-7.22A8.16,8.16,0,0,1,88,91.74Zm-4-22c-.57,0-1.15,0-1.72,0a2.75,2.75,0,0,1-2.74-2.56A2.86,2.86,0,0,1,82,79.71a8.74,8.74,0,0,1,1.54-.07h82.87a9.58,9.58,0,0,1,1.2,0,2.9,2.9,0,0,1,2.76,2.78,2.75,2.75,0,0,1-2.92,2.74c-4,0-8,0-12,0H84.08Zm17.17,37.57A24.08,24.08,0,0,1,94,106.56c-.19-5.09,0-10.18,0-15.49H156c.07.1.21.19.2.28-.07,5.72.16,11.47-.33,17.16s-3.2,10.33-7.14,14.32c-3.55,3.58-7.13,7.13-10.69,10.71a9.46,9.46,0,0,1-6.95,2.86h-12.2a9.29,9.29,0,0,1-6.8-2.8C108.45,130,104.81,126.42,101.25,122.77Zm-27.2,84.44H54.61l.84-5.22,19,2.37C74.28,205.42,74.17,206.26,74.05,207.21ZM115.73,176c-1.74,10.3-3.07,20.68-4.58,31.17H79.93c.83-8.27,1.65-16.54,2.49-25.06l-5.71-.59L75,198.6l-18.55-2.32c.51-3.09,1-6,1.49-8.91.66-3.89,1.22-7.79,2-11.65,2-9.44,7.61-15.86,16.64-19.11,7.73-2.78,15.57-5.26,23.63-8,2.1,8.34,4.17,16.6,6.33,25.17l6.26-7.44C115.7,169,116.39,172.1,115.73,176Zm1.31,31.2c.27-2.07.5-4.08.79-6.09,1.44-10,2.92-20,4.31-30.05a3.93,3.93,0,0,0-.59-2.36c-1.28-2.11-2.67-4.14-4.08-6.16a1.33,1.33,0,0,1,.06-1.93c1.8-2.09,3.53-4.23,5.31-6.32a3.19,3.19,0,0,1,4.36,0c1.74,2.05,3.42,4.16,5.19,6.18a1.41,1.41,0,0,1,.11,2.08c-1.39,1.95-2.78,3.93-4,6a4.85,4.85,0,0,0-.59,2.86c1.39,10.2,2.87,20.38,4.33,30.57.24,1.68.49,3.37.75,5.17Zm13.8-57.76v-7.21H119.13v7.58c-1.43,1.64-2.82,3.32-4.22,5l-5.63,6.71c-1.25-7.12-4-13.53-4.22-20.42l1.69-4.71c.49.49,1,1,1.45,1.47A12.92,12.92,0,0,0,117,142c5,.13,10,.24,14.94.16a14,14,0,0,0,9.72-4.12c.43-.43.85-.87,1.28-1.29l1.94,5.4c-.38,6.57-3.07,12.63-4.39,19.13-.44-.23-.58-.61-.83-.9q-3-3.65-6.06-7.26C132.66,151.93,131.82,150.54,130.84,149.45Zm42.46,32.11-5.72.53c.83,8.4,1.65,16.69,2.49,25.1H138.86q-1.05-7.09-2.08-14.2c-.95-6.62-1.86-13.25-2.86-19.86a4.52,4.52,0,0,1,1-3.79c.74-.94,1.35-2,2.16-3.17l6.42,7.65,6.31-25.16,9.49,3.17,13.16,4.39c9.79,3.3,15.81,10,17.83,20.12,1.25,6.28,2.14,12.62,3.19,18.93a8.66,8.66,0,0,1,0,1L175,198.61C174.45,192.94,173.89,187.35,173.3,181.56Zm2.64,25.66c-.12-1-.22-1.8-.36-2.86L194.51,202c.31,1.8.59,3.46.9,5.24Z"/></svg>
