<svg xmlns="http://www.w3.org/2000/svg" viewBox="0 0 250 250"><defs><style>.a{fill:#ffffff;}</style></defs><path class="a" d="M125,195.77a46.18,46.18,0,1,1,46.18-46.18A46.24,46.24,0,0,1,125,195.77ZM103.92.28v.1c0,1.73.07,51.16.07,51.65V101.2a53,53,0,0,0-27.36,27.35c-5.35,0-36.37.06-38,.06H1.7a2.84,2.84,0,0,0-1.42,0v6.17a3.12,3.12,0,0,0,1.18.08H38.15a2.56,2.56,0,0,0,.47,0h.19c1,0,10.35,0,19.58-.07h3c6.49,0,10.47,0,13-.06a51.87,51.87,0,0,0-.05,29.39l-35.7.06H1a3.16,3.16,0,0,0-.68-.08v6.38a2,2,0,0,0,.42,0H38.13a2.77,2.77,0,0,0,.49,0h.2c1,0,10.13-.05,19.24-.07h3.28c8.78,0,13,0,15.15-.11a52.75,52.75,0,0,0,96.94.15H210.6a2.77,2.77,0,0,0,.49,0h.2c1,0,10.07,0,19.13-.07h3.24c10.31,0,14.34-.05,16.06-.15v-6.13h-.12c-1.55,0-36.83.07-38.51.07H175.67a51.89,51.89,0,0,0,0-29.36h35a2.42,2.42,0,0,0,.47,0h.19c1,0,10.28,0,19.46-.06h3c10.35,0,14.31-.05,16-.14v-6.15h-.11c-1.5,0-36.84.07-38.52.07h-36.7a3.29,3.29,0,0,0-1,0A53.06,53.06,0,0,0,146,101.22V52.52a3,3,0,0,0,0-.67c0-1.13-.05-14.17-.08-25.71V22c0-8.17,0-13.35-.05-16.66,0-.43,0-.84,0-1.23,0-1.95,0-3.09-.08-3.78h-6.32V.39c0,1.81.07,51.15.07,51.64V98.91a51.8,51.8,0,0,0-29.2,0V52.5a.5.5,0,0,0,0-.12,3,3,0,0,0,0-.52c0-1.1,0-14.17-.06-25.72V21.3c0-7,0-11.76,0-15,0-.74,0-1.41,0-2,0-2.15,0-3.32-.06-4Z"/><path class="a" d="M160.52,153.24H149.16v-7.3h11.36a3.3,3.3,0,0,0,0-6.6H149.16V132h6.6a3.3,3.3,0,1,0,0-6.6h-6.6v-6.6a3.3,3.3,0,1,0-6.6,0v6.6h-7.31V114.07a3.3,3.3,0,0,0-6.6,0v11.36h-7.3V114.07a3.3,3.3,0,1,0-6.6,0v11.36h-7.31v-6.6a3.3,3.3,0,0,0-6.6,0v6.6h-6.6a3.3,3.3,0,1,0,0,6.6h6.6v7.31H89.47a3.3,3.3,0,1,0,0,6.6h11.37v7.3H89.47a3.3,3.3,0,1,0,0,6.6h11.37v7.31h-6.6a3.3,3.3,0,1,0,0,6.6h6.6v6.6a3.3,3.3,0,1,0,6.6,0v-6.6h7.31v11.36a3.3,3.3,0,0,0,6.6,0V173.75h7.3v11.36a3.3,3.3,0,0,0,6.6,0V173.75h7.31v6.6a3.3,3.3,0,1,0,6.6,0v-6.6h6.6a3.3,3.3,0,1,0,0-6.6h-6.6v-7.31h11.36a3.3,3.3,0,0,0,0-6.6Zm-18,0h-7.31v-7.3h7.31Zm-13.91,0h-7.3v-7.3h7.3ZM142.56,132v7.31h-7.31V132Zm-13.91,0v7.31h-7.3V132Zm-21.21,0h7.31v7.31h-7.31Zm0,13.91h7.31v7.3h-7.31Zm0,21.21v-7.31h7.31v7.31Zm13.91,0v-7.31h7.3v7.31Zm21.21,0h-7.31v-7.31h7.31Z"/></svg>
