<svg xmlns="http://www.w3.org/2000/svg" viewBox="50 20 200 160" width="1000" height="1200"><defs><style>.a{fill:#ffffff;}</style></defs><path class="a" d="M139.65,80.08l-1.57-.14a16.2,16.2,0,0,0-15.84,8.5,14.34,14.34,0,0,0-1,2.29,15.38,15.38,0,0,0-9.84,2.2l-1.35.83-.14,1.57a12.86,12.86,0,0,0,6.79,12.61,12.23,12.23,0,0,0,8.07,1.32v10.61h6.31V107.22a14.93,14.93,0,0,0,7.73-3.78c5.59-5.3,6.28-14.57,1.64-22ZM127.8,91.42a10,10,0,0,1,8.11-5.21c2.15,4.59,1.61,9.79-1.42,12.66a9.65,9.65,0,0,1-6.45,2.36A9.87,9.87,0,0,1,127.8,91.42Zm-5.89,11.64a6.28,6.28,0,0,1-2.24-.69,6.55,6.55,0,0,1-3.42-4.83,9.06,9.06,0,0,1,4.1-.58A16,16,0,0,0,121.91,103.06Z"/><path class="a" d="M88.29,74.58h1.92l8,47.88A12.91,12.91,0,0,0,111,133.25h32.2A12.89,12.89,0,0,0,156,122.45l8-47.87h1.91a8.3,8.3,0,0,0,8.3-8.29v-.71a8.3,8.3,0,0,0-8.3-8.29h-6.69l2.85-1.19a19.52,19.52,0,0,0-20-14.37,18,18,0,0,0-30,.14c-8.9-.48-17.55,5.49-19.81,13.92l-.18.55a3.1,3.1,0,0,0-.12.95H88.29A8.3,8.3,0,0,0,80,65.58v.71A8.3,8.3,0,0,0,88.29,74.58Zm61.17,46.78a6.33,6.33,0,0,1-6.25,5.29H111a6.33,6.33,0,0,1-6.25-5.29L96.9,74.59c32.68.08,49.06.12,57.41,0h3Zm-37.6-72.9a6.49,6.49,0,0,0,5.79-3.1,11.4,11.4,0,0,1,18.87-.12,6.51,6.51,0,0,0,6,3.22h0a12.89,12.89,0,0,1,12.94,8.83H98.73A12.86,12.86,0,0,1,111.86,48.46ZM86.6,65.58a1.69,1.69,0,0,1,1.69-1.69h77.63a1.7,1.7,0,0,1,1.7,1.69v.71a1.7,1.7,0,0,1-1.7,1.69H88.29a1.69,1.69,0,0,1-1.69-1.69Z"/></svg>
