<svg xmlns="http://www.w3.org/2000/svg" viewBox="0 0 250 250"><defs><style>.a{fill:#ffffff;}</style></defs><path class="a" d="M94.62,85.83a3.3,3.3,0,0,0,3.3-3.3V78a3.3,3.3,0,1,0-6.6,0v4.54A3.3,3.3,0,0,0,94.62,85.83Z"/><path class="a" d="M111.43,85.83a3.3,3.3,0,0,0,3.3-3.3V78a3.3,3.3,0,0,0-6.6,0v4.54A3.3,3.3,0,0,0,111.43,85.83Z"/><path class="a" d="M128.24,85.83a3.3,3.3,0,0,0,3.3-3.3V78a3.3,3.3,0,1,0-6.6,0v4.54A3.3,3.3,0,0,0,128.24,85.83Z"/><path class="a" d="M97.92,99.61V95.07a3.3,3.3,0,1,0-6.6,0v4.54a3.3,3.3,0,1,0,6.6,0Z"/><path class="a" d="M111.43,102.91a3.3,3.3,0,0,0,3.3-3.3V95.07a3.3,3.3,0,1,0-6.6,0v4.54A3.3,3.3,0,0,0,111.43,102.91Z"/><path class="a" d="M146,150.94a3.3,3.3,0,0,0-3.3,3.3v1.32a3.3,3.3,0,0,0,6.6,0v-1.32A3.29,3.29,0,0,0,146,150.94Z"/><path class="a" d="M160.91,155.56v-1.32a3.3,3.3,0,1,0-6.6,0v1.32a3.3,3.3,0,1,0,6.6,0Z"/><path class="a" d="M146,116.59a3.3,3.3,0,0,0-3.3,3.3v1.33a3.3,3.3,0,0,0,6.6,0v-1.33A3.3,3.3,0,0,0,146,116.59Z"/><path class="a" d="M157.61,116.59a3.3,3.3,0,0,0-3.3,3.3v1.33a3.3,3.3,0,1,0,6.6,0v-1.33A3.3,3.3,0,0,0,157.61,116.59Z"/><path class="a" d="M128.24,102.91a3.3,3.3,0,0,0,3.3-3.3V95.07a3.3,3.3,0,1,0-6.6,0v4.54A3.3,3.3,0,0,0,128.24,102.91Z"/><path class="a" d="M212.91,209.7H201.7a3.36,3.36,0,0,0,.43-1.61V188.27h2.6A3.3,3.3,0,0,0,208,185v-10.9a3.3,3.3,0,0,0-3.3-3.3h-2.6v-8a2.93,2.93,0,0,0-.07-.67h2.67a3.3,3.3,0,0,0,3.3-3.3V147.69a3.3,3.3,0,0,0-3.3-3.3h-3.85V131.86l1.87,1.62a3.3,3.3,0,1,0,4.32-5L188.46,112.4a3.3,3.3,0,0,0-4.17-.12l-8,6.19v-9.86a3.3,3.3,0,0,0-3.3-3.3h-4.2V97.63l1.87,1.62a3.3,3.3,0,1,0,4.32-5l-18.61-16.1a3.29,3.29,0,0,0-4.26,0l-7.35,6.1V63.32a3.3,3.3,0,0,0-3.3-3.3h-2.54V46.45a3.3,3.3,0,0,0-3.3-3.3h-.33V37a3.3,3.3,0,0,0-3.3-3.3H113.78a3.3,3.3,0,0,0-3.3,3.3v6.15H97.79a3.3,3.3,0,0,0-3.3,3.3V60h-14a3.3,3.3,0,0,0-3.3,3.3v60.81L48.75,135.85a3.3,3.3,0,0,0-2,3.05v70.8H37.09a3.3,3.3,0,1,0,0,6.6H212.91a3.3,3.3,0,0,0,0-6.6Zm-16.94,0H176.25V188.27h19.28v19.82A3.26,3.26,0,0,0,196,209.7Zm-46.89-39.26v4.86h-39.8a3.56,3.56,0,0,0-.47,0v-5.06a3.12,3.12,0,0,0,.93.15Zm-40.27,11.42a3.57,3.57,0,0,0,.47,0h34.43a3,3,0,0,0-.05.43V209.7H108.81Zm41.41,0h2.16a3.3,3.3,0,0,0,3.3-3.3V167.14a3.3,3.3,0,0,0-3.3-3.3H134.92a1.52,1.52,0,0,0,0-.21V146.78a3.25,3.25,0,0,0-.36-1.46h36a3.27,3.27,0,0,0-1,2.37,3,3,0,0,0,.11.79,2.42,2.42,0,0,0,0,.25v24.63a3.36,3.36,0,0,0-.08.71,3.29,3.29,0,0,0,.08.71V209.7H150.26V182.33A3,3,0,0,0,150.22,181.9Zm51.21-4.53v4.3H176.25v-4.3Zm-28.36-43.94v5.29H131.36v-5.29Zm22.46,29.3v8H176.25v-8.71H195.6A3.62,3.62,0,0,0,195.53,162.73Zm5.9-7.27H176.25V151h25.18Zm-15.24-36.31,8.27,7.16a3.18,3.18,0,0,0-.18,1v17H178.65a3.26,3.26,0,0,0,1-2.37V130.13a3.3,3.3,0,0,0-3.3-3.3h-.16Zm-16.33,7.68H134.74a3.43,3.43,0,0,0,.21-1.12v-13.8h34.7v13.8A3.18,3.18,0,0,0,169.86,126.83ZM154.13,85l8,6.94v13.39H144.72V92.79Zm-37-44.68h11.57v2.85H117.08Zm-16,9.45h31.19V60H101.09ZM83.78,66.62h54.34v38.69h-6.47a3.3,3.3,0,0,0-3.3,3.3v17.1a3.42,3.42,0,0,0,.2,1.12h-.49a3.3,3.3,0,0,0-3.3,3.3V142a3.3,3.3,0,0,0,3.3,3.3h.64a3.24,3.24,0,0,0-.35,1.46v16.85a1.49,1.49,0,0,0,0,.21H109.74a3.12,3.12,0,0,0-.93.15V120.71a3.34,3.34,0,0,0-1-2.35,3.51,3.51,0,0,0-2.36-1l-11.66.11a3.41,3.41,0,0,0-1.22.25l-8.81,3.64ZM53.31,191.54H77.4a3.3,3.3,0,0,0,0-6.6H53.31V177H77.4a3.3,3.3,0,0,0,0-6.6H53.31v-8.27H77.4a3.3,3.3,0,0,0,0-6.6H53.31V141.11l41.21-17,7.69-.07V209.7H53.31Z"/></svg>
