<svg xmlns="http://www.w3.org/2000/svg" viewBox="0 0 250 250"><defs><style>.cls-1{fill:none;stroke:#ffffff;stroke-miterlimit:10;stroke-width:3px;}</style></defs><g id="Layer_18" data-name="Layer 18"><path class="cls-1" d="M200.33,182.52c4.17,4.16,8.3,8.27,12.41,12.41a19.87,19.87,0,0,1,1.95,2.26c3.35,4.66,3.41,11,.19,15.24-3.77,4.95-10.92,6.08-16.62,2.56a14.81,14.81,0,0,1-2.71-2.15c-4.27-4.22-8.49-8.47-12.72-12.71-24.41,17.75-51.31,23.69-80.65,16.6-23.13-5.59-41.52-18.57-55.1-38.09C19.8,139.41,26.34,85.75,62.13,53.9c35.35-31.45,89.21-31.75,124.78-1A95.12,95.12,0,0,1,200.33,182.52ZM180.1,197a43.59,43.59,0,0,0-5.19-3.36,17.2,17.2,0,0,0-14-.3c-10.63,4-21.44,3.83-32.18.41a51.27,51.27,0,0,1,26.24-99,50.49,50.49,0,0,1,25.16,13.32,1.41,1.41,0,0,0,1.76.37c2.1-.88,4.26-1.61,6.31-2.58,6.84-3.23,11.74-8.12,13.54-15.75a17.52,17.52,0,0,1,3.8-7.76c-2.53-4-5.07-8-7.63-12-3.51,3.53-7.65,4.31-12,4-3-.2-5.93-.78-8.9-1.19-4.14-.57-7.76.34-10.54,3.71a27.73,27.73,0,0,1-2.71,2.71,10.68,10.68,0,0,1-5.84,2.83A21,21,0,0,1,143.17,79c-5.54-3.62-8.46-11.69-2.65-18.39,1.6-1.84,3.25-3.63,4.83-5.48a9.72,9.72,0,0,0,1.92-9.75,36,36,0,0,0-4.53-8.8,2.41,2.41,0,0,0-1.81-1.16,92.62,92.62,0,0,0-35.35.74c-1.9.42-3.78.94-5.93,1.48,4.18,2.82,8.06,5.47,12,8.08s4.78,5.11,2.82,9.45a9,9,0,0,0-.44,6.64c.49,1.51,1.07,3,1.65,4.48.9,2.35,2,4.63,2.73,7,1.68,5.37.52,10.13-3.61,14a34.89,34.89,0,0,1-5.18,4,149.59,149.59,0,0,0-25,19.49c-2.5,2.43-4.35,5.22-4.65,8.79q-.87,10.5-1.65,21c-.28,3.87-2.76,5.92-6.47,4.87a40.25,40.25,0,0,1-6-2.66c-1.33-.62-2.59-1.43-4-2a3.34,3.34,0,0,0-4.35,1.49,6.11,6.11,0,0,0-1,2.41,19,19,0,0,0,0,4.39c.38,3.07.93,6.12,1.45,9.45,3.59,0,7.26.26,10.92.09,4.23-.19,8.17.32,11.75,2.79A53.2,53.2,0,0,1,93,173.38a6.33,6.33,0,0,0,2.6,2,21.84,21.84,0,0,1,6.29,3.86c3.6,3.2,6.2,7.19,8.67,11.25a6.12,6.12,0,0,1,0,6.51c-.83,1.45-1.78,2.84-2.73,4.22-1.2,1.73-2.53,3.39-3.69,5.15a9.62,9.62,0,0,0-1.66,5.18,1.32,1.32,0,0,0,1.21,1.54,94,94,0,0,0,23.16,2.46A89.77,89.77,0,0,0,167,205.3,86.4,86.4,0,0,0,180.1,197ZM53.65,157.71c0-.67,0-1.26-.12-1.84-.3-1.89-.66-3.77-1-5.67a14.11,14.11,0,0,1,1-9.11c2-3.91,5.86-5.49,10-3.92,1.63.62,3.1,1.64,4.68,2.4S71.36,141,73,141.63c.8.31,1.26-.07,1.33-1,.47-6.49,1-13,1.43-19.47a19,19,0,0,1,5.9-13.09A150.93,150.93,0,0,1,105.83,89a52.85,52.85,0,0,0,5.53-4c3.62-3,4.63-6.77,3-11.17-1-2.72-2.19-5.39-3.29-8.09-1.74-4.28-2.17-8.54,0-12.86.82-1.66.5-2.38-1-3.41-4.71-3.16-9.42-6.31-14.1-9.52a2.18,2.18,0,0,0-2.26-.3A90,90,0,0,0,49.56,74.5a89,89,0,0,0-15.14,54.06A87.71,87.71,0,0,0,38.49,152a2.07,2.07,0,0,0,.82,1.2A60.88,60.88,0,0,0,53.65,157.71Zm42.64-12.85a48.21,48.21,0,0,0,45.13,48.24,46.36,46.36,0,0,0,19.49-3c7.47-2.76,14.48-1.3,20.31,4.2,5.6,5.29,10.89,10.91,16.43,16.29a12.77,12.77,0,0,0,4.28,2.73c5.9,2.24,11.66-1.27,12.28-7.44.35-3.48-1.1-6.38-3.54-8.81-5.31-5.31-10.59-10.66-15.94-15.93a19.7,19.7,0,0,1-5.79-13.53,21.39,21.39,0,0,1,1.56-8.52,43.64,43.64,0,0,0,1.43-23,48.23,48.23,0,0,0-95.64,8.78Zm2.06,66.73c.2-1.14.33-2.13.56-3.1.74-3.06,2.57-5.54,4.4-8,1.28-1.73,2.47-3.52,3.67-5.31a2.6,2.6,0,0,0-.11-3.13c-1.28-1.88-2.5-3.81-3.86-5.63a21.2,21.2,0,0,0-9.6-7.64,8.56,8.56,0,0,1-3.54-2.88,48.6,48.6,0,0,0-11.54-11,11.68,11.68,0,0,0-7-2.14c-3.31.06-6.62.05-9.93,0-1.34,0-2.68-.17-3.76-.25a66.57,66.57,0,0,1-2.91,7.35,67.75,67.75,0,0,1-4.41,6.55A91.19,91.19,0,0,0,98.35,211.59ZM147.87,36.9c.83,1.67,1.6,3.07,2.24,4.52a16.25,16.25,0,0,1,1.36,10.49c-.72,3.06-2.59,5.44-4.65,7.71-1.29,1.41-2.59,2.83-3.77,4.33-3.24,4.1-1.25,8.78,1.48,11A17.32,17.32,0,0,0,154,78.55a9,9,0,0,0,8.16-3.09c.78-.9,1.65-1.73,2.51-2.57a11.65,11.65,0,0,1,7.82-3.72,54.33,54.33,0,0,1,7.86.4c3.13.37,6.21,1.19,9.39.59,2.13-.41,4.09-1.07,5.4-3.09A91.34,91.34,0,0,0,147.87,36.9Zm59.65,49.92-.36,0c-.58,1.64-1.22,3.25-1.71,4.92a26.31,26.31,0,0,1-4.92,9.88,33.34,33.34,0,0,1-12.62,8.85c-1.3.57-2.62,1.06-3.81,1.54,1.85,2.87,3.65,5.69,5.5,8.48a1.59,1.59,0,0,0,1,.49c9,1.59,14.65,7,16.27,16,.51,2.81.5,5.71.73,8.57.17,2.18.65,4.21,2.7,5.45,1.2.72,1.52.57,1.91-.76a90.79,90.79,0,0,0,1.91-43A88.27,88.27,0,0,0,207.52,86.82Zm3,68.59a8.64,8.64,0,0,1-6.58-7.33c-.44-2.74-.39-5.56-.69-8.33a17.66,17.66,0,0,0-4.54-10.59,12.9,12.9,0,0,0-6.8-3.74,51.71,51.71,0,0,1,3.8,21.12,40.12,40.12,0,0,1-2.52,13.94,17,17,0,0,0-.93,9.85,15.24,15.24,0,0,0,5.18,9.21A90.45,90.45,0,0,0,210.54,155.41Zm-169.79,3a87.43,87.43,0,0,0,7.19,14.18A20.75,20.75,0,0,0,53.31,162Z"/><path class="cls-1" d="M147.41,164.84c1,0,1.71,0,2.47,0a1.38,1.38,0,0,1,1.44,1.56,1.34,1.34,0,0,1-1.49,1.37h-7.92a1.33,1.33,0,0,1-1.43-1.43,1.36,1.36,0,0,1,1.39-1.49c.78-.06,1.58,0,2.45,0v-4.06a42.87,42.87,0,0,1-4.75-1.29,42.71,42.71,0,0,1-4.32-2.3l-3.83,3.86c.5.45,1.07.94,1.6,1.46a1.4,1.4,0,0,1,.12,2.13,1.43,1.43,0,0,1-2.23,0q-2.73-2.69-5.42-5.43a1.49,1.49,0,0,1,0-2.23,1.46,1.46,0,0,1,2.14.14c.51.51,1,1,1.45,1.55l3.89-4a16,16,0,0,1-3.11-7.93h-6.3c0,.78,0,1.52,0,2.27-.05,1-.54,1.6-1.58,1.55a1.4,1.4,0,0,1-1.41-1.59v-7.67a1.49,1.49,0,1,1,3-.06c0,.74,0,1.5,0,2.31h6.28a16.33,16.33,0,0,1,3.32-8.13l-3.89-3.9c-.45.58-.87,1.21-1.39,1.76a1.4,1.4,0,0,1-2.13.1,1.42,1.42,0,0,1,0-2.22c1.79-1.82,3.61-3.63,5.42-5.43a1.5,1.5,0,0,1,2.16-.1,1.52,1.52,0,0,1-.06,2.23,21.37,21.37,0,0,1-1.67,1.41l4,3.69a16.47,16.47,0,0,1,8.09-3.27V125.1c-.81,0-1.55,0-2.3,0a1.37,1.37,0,0,1-1.53-1.47,1.34,1.34,0,0,1,1.5-1.48h7.79a1.48,1.48,0,1,1,0,3c-.75,0-1.51,0-2.36,0v4.51A16.52,16.52,0,0,1,155,133l3.71-3.88a13.43,13.43,0,0,1-1.59-1.23,1.51,1.51,0,1,1,2.1-2.14c1.75,1.75,3.51,3.49,5.25,5.26.8.81.86,1.71.15,2.31a1.5,1.5,0,0,1-2.24-.16c-.48-.48-.93-1-1.29-1.38l-3.65,3.66a15.63,15.63,0,0,1,3.26,8h4.73c0-.65,0-1.35,0-2.05.05-1.12.62-1.75,1.55-1.75s1.47.61,1.47,1.79q0,3.64,0,7.31c0,1.15-.56,1.76-1.52,1.74s-1.46-.7-1.51-1.65c0-.7,0-1.41,0-2.25-1.47,0-2.82,0-4.16,0a.91.91,0,0,0-.63.63,15.71,15.71,0,0,1-3.48,7.81l3.71,3.67a20.31,20.31,0,0,1,1.28-1.62,1.5,1.5,0,1,1,2.09,2.13c-1.76,1.75-3.5,3.51-5.26,5.25a1.51,1.51,0,0,1-2.31.17,1.53,1.53,0,0,1,.24-2.31c.47-.48,1-.87,1.51-1.28l-3.64-3.59c-1,.54-2,1.2-3.18,1.75a15.48,15.48,0,0,1-2.48.86c-1.72.49-1.72.47-1.72,2.33Zm-2.16-31.19a11.47,11.47,0,1,0,11.51,11.46A11.49,11.49,0,0,0,145.25,133.65Z"/><circle class="cls-1" cx="144.48" cy="144.62" r="38.73"/></g></svg>