<svg xmlns="http://www.w3.org/2000/svg" viewBox="0 0 250 250"><defs><style>.cls-1,.cls-11,.cls-12,.cls-2,.cls-3,.cls-4,.cls-5,.cls-6,.cls-7,.cls-8,.cls-9{stroke:#ffffff;}.cls-1,.cls-11,.cls-12,.cls-3,.cls-4,.cls-5{stroke-miterlimit:10;}.cls-1,.cls-4,.cls-5,.cls-6{stroke-width:4px;}.cls-11,.cls-2,.cls-3,.cls-4{fill:none;}.cls-12,.cls-2,.cls-7,.cls-9{stroke-linecap:round;}.cls-2,.cls-6,.cls-7,.cls-8,.cls-9{stroke-linejoin:round;}.cls-2,.cls-8,.cls-9{stroke-width:3px;}.cls-10,.cls-12,.cls-5,.cls-6,.cls-7,.cls-8,.cls-9{fill:none;}.cls-6,.cls-8{stroke-linecap:square;}.cls-11,.cls-12,.cls-7{stroke-width:2px;}</style></defs><g id="Layer_8" data-name="Layer 8"><path class="cls-5" d="M46.44,63.38C44.77,70,43.12,76.77,43,83.63c0,2.51.12,7.27,2.48,8.91,3,2.11,4.51-2.13,4.89-4.79l2-14A56.24,56.24,0,0,0,94.09,92.12L87.74,73.67a80.18,80.18,0,0,0,27.23,17A57.65,57.65,0,0,0,146.78,93a2.88,2.88,0,0,0,2.75-3.15c1.75-15.72-5-31.86-16.55-42.66-24.33-22.71-61.61-19.51-88.14-2.74a3,3,0,0,0-1.52,1.64c-.31,1.25,1,2.31,2.26,2.68a8.1,8.1,0,0,0,8.11-2.27A47,47,0,0,0,33,62.67a3.16,3.16,0,0,0-.74,1.67c0,1.41,1.68,2.15,3.09,2.31A15.24,15.24,0,0,0,46.44,63.38Z"/><path class="cls-2 cls-5 " d="M62.13,102.83s7.44,4.87,19.48-4"/><rect style="fill:white;" x="67.63" y="103.49" width="10.47" height="14.98" rx="4"/><rect class="cls-3"  x="67.63" y="103.49" width="10.47" height="14.98" rx="4"/><path class="cls-2" d="M129.05,102.74s-7.62,4.87-19.93-4"/><rect style="fill:white;" x="112.7" y="103.4" width="10.71" height="14.98" rx="4"/><rect class="cls-3" x="112.7" y="103.4" width="10.71" height="14.98" rx="4"/><path class="cls-2 cls-5" d="M85.72,132.93s9.76-10.05,18.69,0"/><path class="cls-4 cls-5 " d="M48.86,90.08S22.39,106,50,118.47c0,0,44.36,81.44,90.39,2,0,0,30.62-6.38,6.38-29.49"/><path class="cls-4 cls-5" d="M79.3,152.74s-30.69.27-33.48,33.47l108.25-1.11s-4.62-32.68-41.37-32.36c0,0,4.34,20.08-15.93,23.71C96.77,176.45,77.07,172.54,79.3,152.74Z"/><path class="cls-5" d="M140.26,123.82l-20.2,43.86c-2.33,5.07-4.68,10.18-5.9,15.62-4,17.67,10.16,36.62,29,35.2,12-.9,22.79-10.85,24.63-22.77,1.65-10.69-3.16-21.19-7.84-30.94Z"/><path class="cls-6 cls-5" d="M184.1,109.63a33,33,0,0,0-25.34,54.26l-2.65,11.63,10.35-4.88a33.05,33.05,0,1,0,17.64-61Z"/><circle class="cls-7" cx="199.67" cy="132.38" r="4.04"/><circle class="cls-7" cx="172.05" cy="158.37" r="2.83"/><circle class="cls-8" cx="177.05" cy="136.26" r="10.78"/><line class="cls-9" x1="177.05" y1="125.48" x2="177.05" y2="121.4"/><line class="cls-9" x1="177.05" y1="147.79" x2="177.05" y2="151.36"/><line class="cls-9" x1="165.51" y1="136.26" x2="162.43" y2="136.26"/><line class="cls-9" x1="188.58" y1="136.26" x2="191.34" y2="136.26"/><line class="cls-9" x1="169.33" y1="128.73" x2="166.97" y2="126.37"/><line class="cls-9" x1="185.05" y1="129.04" x2="187.38" y2="126.71"/><line class="cls-9" x1="170.41" y1="144.75" x2="167.75" y2="147.03"/><line class="cls-9" x1="184.26" y1="144.26" x2="186.86" y2="146.86"/><line class="cls-7" x1="177.05" y1="130.03" x2="177.05" y2="131.06"/><line class="cls-7" x1="177.05" y1="141.2" x2="177.05" y2="142.23"/><line class="cls-7" x1="183.06" y1="136.26" x2="182.03" y2="136.26"/><line class="cls-7 cls-5" x1="172.14" y1="136.24" x2="171.11" y2="136.23"/><path class="cls-10 cls-5" d="M188.83,158.5a4.17,4.17,0,0,0,.1,5.74l.51.5a3.85,3.85,0,0,0,5.56-.1l10.82-11.59a4.19,4.19,0,0,0-.1-5.75l-.51-.5a3.85,3.85,0,0,0-5.56.1Z"/><path class="cls-11" d="M188.83,158.5a4.17,4.17,0,0,0,.1,5.74l.51.5a3.85,3.85,0,0,0,5.56-.1l10.82-11.59a4.19,4.19,0,0,0-.1-5.75l-.51-.5a3.85,3.85,0,0,0-5.56.1Z"/><line class="cls-12" x1="202.33" y1="150.41" x2="192.03" y2="161.44"/></g></svg>