<svg xmlns="http://www.w3.org/2000/svg" viewBox="0 0 250 250"><defs><style>.a{fill:#ffffff;}</style></defs><path class="a" d="M36.56,101.78c-9.6,0-20.81,2.76-20.81,10.55v25.91c0,7.8,11.21,10.56,20.81,10.56S57.37,146,57.37,138.24V112.33C57.37,104.54,46.16,101.78,36.56,101.78Zm14.21,36.46c0,1.35-5,4-14.21,4s-14.21-2.61-14.21-4v-17.8a37.76,37.76,0,0,0,14.21,2.45,37.8,37.8,0,0,0,14.21-2.45Zm-14.21-22c-9.2,0-14.21-2.61-14.21-4s5-4,14.21-4,14.21,2.61,14.21,4S45.75,116.29,36.56,116.29Z"/><path class="a" d="M121.93,93.1a7.38,7.38,0,0,0,.29-2c0-7.78-11.13-10.55-21.54-10.55S79.14,83.35,79.14,91.13a7.38,7.38,0,0,0,.29,2v43.81a3.31,3.31,0,0,0-.29,1.33c0,7.79,11.13,10.56,21.54,10.56s21.54-2.77,21.54-10.56a3.31,3.31,0,0,0-.29-1.33Zm-21.25-5.92c9.27,0,14.94,2.56,14.94,3.95s-5.67,4-14.94,4-14.94-2.56-14.94-4S91.41,87.18,100.68,87.18Zm15.23,49.73a3.31,3.31,0,0,0-.29,1.33c0,1.4-5.67,4-14.94,4s-14.94-2.56-14.94-4a3.31,3.31,0,0,0-.29-1.33V99.07c4.14,1.84,9.78,2.61,15.23,2.61s11.09-.77,15.23-2.61Z"/><path class="a" d="M233.22,146.4v-32a2.2,2.2,0,0,0-2.2-2.2H215.26v-6.93s0,0,0-.06,0,0,0-.06V85.64a3.3,3.3,0,0,0-3.3-3.3H180.4l-.08,0-.09,0H147.67a3.3,3.3,0,0,0-3.3,3.3v19.51s0,0,0,.06,0,0,0,.06v18.28s0,.06,0,.09,0,0,0,.09v18.7a3.29,3.29,0,0,0,3.3,3.3h0l32.64-.09,31.63.09h0a3.29,3.29,0,0,0,3.3-3.3v-18.7s0-.06,0-.09,0-.06,0-.09v-7h13.56v29.8l-5.26-5.26v6.33l7.46,7.46,7.46-7.46v-6.33Zm-56.29-7.35-26,.07V127h26Zm0-18.8H151V108.57h26Zm0-18.4H151V88.94h26Zm31.73,37.27-25-.07V127h25Zm0-18.87h-25V108.57h25Zm0-18.4h-25V88.94h25Z"/><polygon class="a" points="63.77 132.99 70.1 132.99 77.56 125.53 70.1 118.07 63.77 118.07 69.03 123.33 58.83 123.33 58.83 127.73 69.03 127.73 63.77 132.99"/><polygon class="a" points="129.09 132.99 135.42 132.99 142.88 125.53 135.42 118.07 129.09 118.07 134.35 123.33 124.14 123.33 124.14 127.73 134.35 127.73 129.09 132.99"/><polygon class="a" points="43.98 83.21 43.98 76.87 38.72 82.13 38.72 52.24 34.32 52.24 34.32 82.14 29.06 76.87 29.06 83.21 36.52 90.67 43.98 83.21"/><path class="a" d="M249.72,168.36l-22.29-6.8a34,34,0,0,0-21.18.64L193.78,167c-4.91,1.89-7.89,1.87-12.76-.11l-9.58-3.9a33.86,33.86,0,0,0-23.92,0l-9.5,3.86a24.19,24.19,0,0,1-16.63.08l-10.71-4.2a33.56,33.56,0,0,0-23.33,0L76.74,166.9A24.3,24.3,0,0,1,60,166.78l-10.52-4.36a33.89,33.89,0,0,0-21.18-1.06l-28,7.89v6.86l29.82-8.4a27,27,0,0,1,16.85.81l10.54,4.36a30.6,30.6,0,0,0,21.66.16l10.61-4.17a27.07,27.07,0,0,1,18.51,0L119,173.08a30.61,30.61,0,0,0,21.52-.11l9.5-3.87a27.33,27.33,0,0,1,19,0l9.58,3.91c6.39,2.6,11.16,2.63,17.61.15l12.47-4.8a27.16,27.16,0,0,1,16.88-.49l24.22,7.39Z"/><path class="a" d="M249.72,202.87l-24.22-7.39a27.12,27.12,0,0,0-16.87.49l-12.48,4.81c-6.45,2.48-11.22,2.44-17.61-.17L169,196.73a27.16,27.16,0,0,0-19,0l-9.5,3.86a30.61,30.61,0,0,1-21.52.11l-10.72-4.21a27.13,27.13,0,0,0-18.51,0l-10.61,4.17a30.6,30.6,0,0,1-21.66-.16L47,196.13a27,27,0,0,0-16.86-.81L.28,203.72v-6.85l28-7.9A33.93,33.93,0,0,1,49.48,190L60,194.39a24.3,24.3,0,0,0,16.73.12l10.61-4.17a33.67,33.67,0,0,1,23.33,0l10.72,4.21a24.34,24.34,0,0,0,16.62-.08l9.5-3.86a33.86,33.86,0,0,1,23.92,0L181,194.5c4.87,2,7.85,2,12.76.12l12.47-4.81a34.1,34.1,0,0,1,21.18-.64l22.29,6.8Z"/></svg>