<svg xmlns="http://www.w3.org/2000/svg" viewBox="0 0 250 250"><defs><style>.a{fill:#ffffff;}</style></defs><path class="a" d="M158.87,96.06a58,58,0,0,0-38.47,14.5,68.28,68.28,0,0,0-20.81-7.74A31.48,31.48,0,0,0,121.67,73c0-17.3-14.38-31.38-32-31.38S57.55,55.72,57.55,73a31.51,31.51,0,0,0,22.37,29.9C53.68,107.59,33.7,130.05,33.7,157c0,4.53,2,8.6,6,12.12,9.9,8.78,30.42,12.61,50.19,12.61a185.85,185.85,0,0,0,19.49-1.22,57.65,57.65,0,0,0,49.52,27.81c31.67,0,57.43-25.19,57.43-56.15S190.54,96.06,158.87,96.06ZM64.15,73c0-13.66,11.42-24.78,25.47-24.78S115.07,59.36,115.07,73,103.65,97.8,89.62,97.8,64.15,86.68,64.15,73Zm-20.1,91.2C41.53,162,40.3,159.63,40.3,157c0-26.72,22.3-48.45,49.71-48.45a50.28,50.28,0,0,1,25.46,6.85l.3-.28a55,55,0,0,0-9.71,59.09C81,177.22,53.76,172.83,44.05,164.22Zm114.82,37.54c-28,0-50.83-22.23-50.83-49.55s22.8-49.55,50.83-49.55,50.83,22.23,50.83,49.55S186.9,201.76,158.87,201.76Z"/><path class="a" d="M158.87,110c-23.79,0-43.13,18.92-43.13,42.18s19.34,42.18,43.13,42.18S202,175.47,202,152.21,182.65,110,158.87,110Zm-36.53,42.18c0-19.62,16.38-35.58,36.53-35.58a37,37,0,0,1,22.38,7.51l-49.63,51.69A34.85,34.85,0,0,1,122.34,152.21Zm36.53,35.58a36.94,36.94,0,0,1-22.38-7.51l49.63-51.68a34.89,34.89,0,0,1,9.28,23.61C195.4,171.83,179,187.79,158.87,187.79Z"/></svg>