<svg xmlns="http://www.w3.org/2000/svg" viewBox="0 0 250 250"><defs><style>.a{fill:#ffffff;}</style></defs><path class="a" d="M61.57,176.45a3.43,3.43,0,0,0-2.52-1.09h0a3.44,3.44,0,0,0-2.51,1.07s-2.37,2.49-3.45,3.73c-3.58,4.15-7.18,8.77-9.19,14.44a16.05,16.05,0,0,0,7.42,19.88,19.66,19.66,0,0,0,3.41,1.36c.42.14.83.27,1.23.42a3.59,3.59,0,0,0,1.21.22h3.89a4.18,4.18,0,0,0,1.47-.36,16.28,16.28,0,0,0,10.32-7.3,15.65,15.65,0,0,0,1.93-12C72.77,188.52,62.71,177.66,61.57,176.45Zm5.37,28.7A9.37,9.37,0,0,1,61,209.33a4.91,4.91,0,0,0-.67.19H57.76l-.88-.29a13.05,13.05,0,0,1-2.26-.87,9.1,9.1,0,0,1-4.18-11.43c1.54-4.34,4.27-8,7.9-12.22L59,184c3.34,3.94,8,10.17,9,14.45A8.8,8.8,0,0,1,66.94,205.15Z"/><path class="a" d="M207.12,69.3H191.71a3.48,3.48,0,0,0-3.48,3.48V87c-1.7,0-3.39,0-5.19,0h-.14A14,14,0,0,0,173,91.17a15.67,15.67,0,0,0-4,6.91h-1l-28.09,0a34.54,34.54,0,0,0-12-8.35c-.82-.33-1.42-.62-2-.9l-1.35-.63V81.58a10.52,10.52,0,0,0,6.1-8.51h25.58a15,15,0,0,0,0-30.08H130.64a10.54,10.54,0,0,0-10.47-9.47h-12A10.55,10.55,0,0,0,97.73,43H72.08a15,15,0,0,0,0,30.08H97.73a10.54,10.54,0,0,0,6.38,8.64v6.47c-6.63,2-8.76,3.81-13.75,8.62l-1.31,1.25c-2.11,0-4.22,0-6.34,0-2.64,0-5.25,0-8,0a38.36,38.36,0,0,0-7.32.59c-16.74,3.4-28,17.21-28,34.36V168.3a3.47,3.47,0,0,0,3.48,3.47H76.09a3.47,3.47,0,0,0,3.48-3.47V151.12a5.6,5.6,0,0,1,5.59-5.58c2,0,3.7,0,4.11-.07,12.68,13.42,34,14.54,47.49,2.49,2.35-2.08,4.15-2.77,6.68-2.49,1.28.13,8.4.15,25.39.06h.76A19,19,0,0,0,187.13,158l1.18,0v14.2a3.47,3.47,0,0,0,3.47,3.47h15.34a3.47,3.47,0,0,0,3.48-3.47V72.78A3.48,3.48,0,0,0,207.12,69.3ZM130.7,50h25.52a8.09,8.09,0,0,1,0,16.17H130.7Zm-33,16.17H72.08a8.09,8.09,0,0,1,0-16.17h25.6Zm6.95,3.48V44.05a3.58,3.58,0,0,1,3.57-3.57h12a3.58,3.58,0,0,1,3.58,3.57V72a3.58,3.58,0,0,1-3.58,3.57h-12A3.58,3.58,0,0,1,104.63,72Zm39.54,69c-4.49-.44-8.21.82-12,4.22-10.73,9.56-27.69,8.64-37.82-2.08a6.22,6.22,0,0,0-5.09-2.14c-.61,0-2.21,0-4.08,0a12.56,12.56,0,0,0-12.53,12.53v13.7H46.35V133.06A27.54,27.54,0,0,1,68.83,105.5a34,34,0,0,1,6.1-.45c2.59,0,5.18,0,7.77,0,2.33,0,4.65,0,7,0a5.69,5.69,0,0,0,3.84-1.57l1.69-1.63c5-4.81,5.89-5.68,13.28-7.63a3.46,3.46,0,0,0,2.59-3.36V83.58h6.52v7.07A3.49,3.49,0,0,0,120,94a20.4,20.4,0,0,1,2.9,1.18c.68.33,1.41.68,2.39,1.08a27.56,27.56,0,0,1,9.6,6.72,7.06,7.06,0,0,0,4.62,2c2.78.09,20.14.06,28.49.05l.13,33.55C153.33,138.66,145.26,138.64,144.17,138.55Zm59.48,30.22h-8.39V154.63a3.47,3.47,0,0,0-3.43-3.47l-4.53-.09a12.16,12.16,0,0,1-12-12.23c0-11.92,0-27.83,0-36.53a8.71,8.71,0,0,1,2.56-6.21A7.92,7.92,0,0,1,183.07,94c2,0,3.91,0,5.9,0h2.74a3.48,3.48,0,0,0,3.48-3.48V76.26h8.46Z"/></svg>
